<?xml version="1.0" encoding="UTF-8" standalone="no"?>
<svg
   role="img"
   viewBox="0 0 24 24"
   version="1.1"
   id="svg7875"
   sodipodi:docname="fiverr.svg"
   inkscape:version="1.2.2 (b0a8486541, 2022-12-01)"
   xmlns:inkscape="http://www.inkscape.org/namespaces/inkscape"
   xmlns:sodipodi="http://sodipodi.sourceforge.net/DTD/sodipodi-0.dtd"
   xmlns="http://www.w3.org/2000/svg"
   xmlns:svg="http://www.w3.org/2000/svg">
  <defs
     id="defs7879" />
  <sodipodi:namedview
     id="namedview7877"
     pagecolor="#ffffff"
     bordercolor="#999999"
     borderopacity="1"
     inkscape:showpageshadow="0"
     inkscape:pageopacity="0"
     inkscape:pagecheckerboard="0"
     inkscape:deskcolor="#d1d1d1"
     showgrid="false"
     inkscape:zoom="23.291667"
     inkscape:cx="12"
     inkscape:cy="12.042934"
     inkscape:window-width="1366"
     inkscape:window-height="748"
     inkscape:window-x="0"
     inkscape:window-y="20"
     inkscape:window-maximized="1"
     inkscape:current-layer="svg7875" />
  <title
     id="title7871">Fiverr</title>
  <path
     d="M23.004 15.588a.995.995 0 1 0 .002-1.99.995.995 0 0 0-.002 1.99zm-.996-3.705h-.85c-.546 0-.84.41-.84 1.092v2.466h-1.61v-3.558h-.684c-.547 0-.84.41-.84 1.092v2.466h-1.61v-4.874h1.61v.74c.264-.574.626-.74 1.163-.74h1.972v.74c.264-.574.625-.74 1.162-.74h.527v1.316zm-6.786 1.501h-3.359c.088.546.43.858 1.006.858.43 0 .732-.175.83-.487l1.425.4c-.351.848-1.22 1.364-2.255 1.364-1.748 0-2.549-1.355-2.549-2.515 0-1.14.703-2.505 2.45-2.505 1.856 0 2.471 1.384 2.471 2.408 0 .224-.01.37-.02.477zm-1.562-.945c-.04-.42-.342-.81-.889-.81-.508 0-.81.225-.908.81h1.797zM7.508 15.44h1.416l1.767-4.874h-1.62l-.86 2.837-.878-2.837H5.72l1.787 4.874zm-6.6 0H2.51v-3.558h1.524v3.558h1.591v-4.874H2.51v-.302c0-.332.235-.536.606-.536h.918V8.412H2.85c-1.162 0-1.943.712-1.943 1.755v.4H0v1.316h.908v3.558z"
     id="path7873" />
  <path
     style="fill:#f4f9e9;stroke:#f4f9e9;stroke-width:0.713986"
     d="m 0.92307692,13.631485 v -1.781753 h -0.45080501 -0.450805 v -0.622541 -0.62254 h 0.44506488 0.44506489 l 0.0218586,-0.418604 C 0.96123864,9.6539807 1.07176,9.3528221 1.3516095,9.046622 1.7744098,8.5840113 2.1438528,8.4623455 3.2307692,8.4277734 L 4.0143113,8.4028508 V 9.052946 9.7030411 H 3.4999744 c -0.802493,0 -0.9802506,0.1086528 -0.9994976,0.6109339 l -0.010316,0.269209 1.5563506,0.01127 1.5563507,0.01127 v 2.403758 2.403758 H 4.8300537 4.0572451 V 13.631485 11.849732 H 3.2629696 2.4686941 v 1.781753 1.781753 H 1.6958855 0.92307692 Z"
     id="path8430" />
  <path
     style="fill:#f4f9e9;stroke:#f4f9e9;stroke-width:0.713986"
     d="M 7.4916853,15.317702 C 7.4684045,15.263986 7.1208364,14.322656 6.7193116,13.225858 6.0232502,11.32451 5.9892665,11.217087 5.9892665,10.918166 v -0.313515 h 0.6639607 0.6639606 l 0.1308821,0.418605 c 0.071985,0.230232 0.2695818,0.86795 0.4391039,1.41715 0.1695221,0.5492 0.3204581,0.983905 0.3354135,0.966011 0.014955,-0.01789 0.157652,-0.46724 0.3171035,-0.998546 0.1594516,-0.531306 0.3478643,-1.154383 0.4186949,-1.384615 l 0.128783,-0.418605 h 0.7694747 c 0.4232106,0 0.7694746,0.01579 0.7694746,0.0351 0,0.0193 -0.385101,1.096405 -0.8557802,2.39356 l -0.8557802,2.358463 -0.6902719,0.0118 c -0.6822632,0.01166 -0.6907629,0.01067 -0.7326004,-0.08587 z"
     id="path8432" />
  <path
     style="fill:#f4f9e9;stroke:#f4f9e9;stroke-width:0.713986"
     d="m 12.257603,15.432125 c -0.673773,-0.145231 -1.284501,-0.604317 -1.5958,-1.199567 -0.219164,-0.419074 -0.305826,-0.778199 -0.305636,-1.266547 2.73e-4,-0.705005 0.308637,-1.431036 0.79261,-1.866169 0.755998,-0.679707 2.150724,-0.772361 3.022477,-0.200787 0.662453,0.434343 0.99523,1.066062 1.037944,1.970355 l 0.02281,0.483005 h -1.702692 -1.702692 l 0.02615,0.118068 c 0.104233,0.470586 0.432461,0.7487 0.915846,0.776014 0.456166,0.02577 0.756895,-0.100705 0.92726,-0.389989 0.0395,-0.06707 0.08412,-0.0609 0.558139,0.07728 0.283363,0.0826 0.587668,0.169872 0.676232,0.193937 l 0.161027,0.04376 -0.08506,0.166722 c -0.04678,0.0917 -0.193937,0.284327 -0.327016,0.428068 -0.542714,0.586196 -1.53077,0.857875 -2.42161,0.665854 z m 1.416816,-3.0471 c 0,-0.215074 -0.249065,-0.566969 -0.493739,-0.697587 -0.15506,-0.08278 -0.687965,-0.08837 -0.84187,-0.0088 -0.237781,0.12288 -0.405626,0.348865 -0.469901,0.632669 l -0.0316,0.139535 h 0.918555 c 0.79643,0 0.918556,-0.0087 0.918556,-0.06578 z"
     id="path8434" />
  <path
     style="fill:#f4f9e9;stroke:#f4f9e9;stroke-width:0.713986"
     d="m 15.60644,13.008945 v -2.404294 h 0.772809 0.772808 l 0.0025,0.375671 c 0.0021,0.308191 0.01171,0.361061 0.05367,0.294333 0.187085,-0.297542 0.332563,-0.445648 0.542142,-0.551936 l 0.232806,-0.118068 h 1.151514 1.151514 l 0.0025,0.375671 c 0.0021,0.308191 0.01171,0.361061 0.05367,0.294333 0.187085,-0.297542 0.332563,-0.445648 0.542142,-0.551936 0.20928,-0.106136 0.277584,-0.118068 0.675912,-0.118068 h 0.443107 v 0.62254 0.622541 l -0.461539,2.4e-4 c -0.543093,2.83e-4 -0.734175,0.04491 -0.930541,0.217318 -0.288059,0.25292 -0.300241,0.326715 -0.316688,1.9184 l -0.01475,1.427548 H 19.51029 18.740564 v -1.781753 -1.781753 l -0.397138,2.4e-4 c -0.218425,1.33e-4 -0.468988,0.02019 -0.556806,0.04458 -0.219249,0.06089 -0.415759,0.237073 -0.523073,0.468963 -0.08474,0.183115 -0.09088,0.279016 -0.103883,1.62217 l -0.01382,1.427549 H 16.376166 15.60644 Z"
     id="path8436" />
  <path
     style="fill:#f4f9e9;stroke:#f4f9e9;stroke-width:0.713986"
     d="M 22.764085,15.523827 C 22.202717,15.3731 21.891784,14.750475 22.11319,14.220446 c 0.220107,-0.526921 0.878297,-0.752224 1.364202,-0.466976 0.226489,0.132959 0.439824,0.423303 0.483983,0.65869 0.07288,0.38851 -0.136408,0.823006 -0.486573,1.010138 -0.266007,0.142156 -0.457515,0.169514 -0.710717,0.101529 z"
     id="path8438" />
</svg>
