<?xml version="1.0" encoding="UTF-8" standalone="no"?>
<svg
   role="img"
   viewBox="0 0 24 24"
   version="1.1"
   id="svg46"
   sodipodi:docname="git.svg"
   inkscape:version="1.2.2 (b0a8486541, 2022-12-01)"
   xmlns:inkscape="http://www.inkscape.org/namespaces/inkscape"
   xmlns:sodipodi="http://sodipodi.sourceforge.net/DTD/sodipodi-0.dtd"
   xmlns="http://www.w3.org/2000/svg"
   xmlns:svg="http://www.w3.org/2000/svg">
  <defs
     id="defs50" />
  <sodipodi:namedview
     id="namedview48"
     pagecolor="#ffffff"
     bordercolor="#999999"
     borderopacity="1"
     inkscape:showpageshadow="0"
     inkscape:pageopacity="0"
     inkscape:pagecheckerboard="0"
     inkscape:deskcolor="#d1d1d1"
     showgrid="false"
     inkscape:zoom="23.291667"
     inkscape:cx="5.0447227"
     inkscape:cy="12.042934"
     inkscape:window-width="1366"
     inkscape:window-height="748"
     inkscape:window-x="0"
     inkscape:window-y="20"
     inkscape:window-maximized="1"
     inkscape:current-layer="svg46" />
  <title
     id="title42">Git</title>
  <path
     d="M23.546 10.93L13.067.452c-.604-.603-1.582-.603-2.188 0L8.708 2.627l2.76 2.76c.645-.215 1.379-.07 1.889.441.516.515.658 1.258.438 1.9l2.658 2.66c.645-.223 1.387-.078 1.9.435.721.72.721 1.884 0 2.604-.719.719-1.881.719-2.6 0-.539-.541-.674-1.337-.404-1.996L12.86 8.955v6.525c.176.086.342.203.488.348.713.721.713 1.883 0 2.6-.719.721-1.889.721-2.609 0-.719-.719-.719-1.879 0-2.598.182-.18.387-.316.605-.406V8.835c-.217-.091-.424-.222-.6-.401-.545-.545-.676-1.342-.396-2.009L7.636 3.7.45 10.881c-.6.605-.6 1.584 0 2.189l10.48 10.477c.604.604 1.582.604 2.186 0l10.43-10.43c.605-.603.605-1.582 0-2.187"
     id="path44" />
  <path
     style="fill:#5b8fb9;stroke:#5b8fb9;stroke-width:0.713986;fill-opacity:1;stroke-opacity:1"
     d="m 11.796473,23.948314 c -0.506564,-0.0751 -0.264121,0.150398 -6.0558284,-5.632657 -6.13726183,-6.128095 -5.69771079,-5.639216 -5.69771079,-6.337124 0,-0.684893 -0.22802296,-0.419494 3.93835689,-4.5839063 l 3.662559,-3.6608294 1.3390137,1.343416 1.3390136,1.3434157 -0.06752,0.230321 c -0.107746,0.3675538 -0.06529,0.901024 0.09944,1.2496139 0.166916,0.353213 0.436353,0.6568868 0.729734,0.8224606 l 0.229527,0.1295374 v 3.2794651 3.279466 l -0.179233,0.09144 c -0.278835,0.142251 -0.622077,0.514297 -0.777821,0.843094 -0.13021,0.27489 -0.137758,0.317882 -0.137758,0.784565 0,0.466684 0.0075,0.509675 0.137758,0.784565 0.178632,0.377117 0.501944,0.700748 0.89175,0.892629 0.288804,0.142162 0.317513,0.147493 0.794276,0.147493 0.4677,0 0.510482,-0.0075 0.785468,-0.137758 0.382059,-0.180972 0.721391,-0.520305 0.902364,-0.902364 0.130209,-0.27489 0.137758,-0.317881 0.137758,-0.784565 0,-0.465928 -0.0077,-0.509998 -0.136744,-0.782397 -0.151649,-0.320124 -0.446601,-0.662535 -0.678094,-0.787202 L 12.90161,15.479579 V 12.25886 9.038142 l 1.203682,1.201859 c 0.964968,0.963508 1.198821,1.218889 1.179175,1.287727 -0.08561,0.299957 -0.109409,0.619143 -0.0656,0.879762 0.136805,0.813915 0.747131,1.419317 1.567987,1.555338 0.907498,0.150377 1.825267,-0.45576 2.059275,-1.360042 0.339058,-1.310225 -0.768611,-2.532507 -2.089731,-2.30596 l -0.309686,0.05311 -1.30457,-1.3045694 -1.304569,-1.3045692 0.04783,-0.3082703 C 14.013865,6.6045377 13.616929,5.8340162 12.872353,5.466027 12.59311,5.3280176 12.501085,5.3045762 12.177876,5.289123 11.972957,5.279323 11.73566,5.290533 11.650548,5.314038 L 11.495801,5.3567657 10.127149,3.987076 8.7584973,2.6173863 9.960644,1.4216327 c 1.109003,-1.10310471 1.221828,-1.20300138 1.456157,-1.28929542 0.467847,-0.17228941 1.026574,-0.10532825 1.420408,0.17023019 0.09445,0.066088 2.588614,2.54150423 5.542576,5.50092493 6.036561,6.0477166 5.570682,5.5280416 5.574997,6.2187386 0.0043,0.695129 0.441599,0.208443 -5.673959,6.315377 -4.124706,4.118889 -5.446326,5.414296 -5.593882,5.48293 -0.253554,0.117937 -0.610938,0.169219 -0.890468,0.127776 z"
     id="path848" />
</svg>
