<?xml version="1.0" encoding="UTF-8" standalone="no"?>
<svg
   role="img"
   viewBox="0 0 24 24"
   version="1.1"
   id="svg9220"
   sodipodi:docname="github.svg"
   inkscape:version="1.2.2 (b0a8486541, 2022-12-01)"
   xmlns:inkscape="http://www.inkscape.org/namespaces/inkscape"
   xmlns:sodipodi="http://sodipodi.sourceforge.net/DTD/sodipodi-0.dtd"
   xmlns="http://www.w3.org/2000/svg"
   xmlns:svg="http://www.w3.org/2000/svg">
  <defs
     id="defs9224" />
  <sodipodi:namedview
     id="namedview9222"
     pagecolor="#ffffff"
     bordercolor="#999999"
     borderopacity="1"
     inkscape:showpageshadow="0"
     inkscape:pageopacity="0"
     inkscape:pagecheckerboard="0"
     inkscape:deskcolor="#d1d1d1"
     showgrid="false"
     inkscape:zoom="23.291667"
     inkscape:cx="12"
     inkscape:cy="12.042934"
     inkscape:window-width="1366"
     inkscape:window-height="748"
     inkscape:window-x="0"
     inkscape:window-y="20"
     inkscape:window-maximized="1"
     inkscape:current-layer="svg9220" />
  <title
     id="title9216">GitHub</title>
  <path
     d="M12 .297c-6.63 0-12 5.373-12 12 0 5.303 3.438 9.8 8.205 11.385.6.113.82-.258.82-.577 0-.285-.01-1.04-.015-2.04-3.338.724-4.042-1.61-4.042-1.61C4.422 18.07 3.633 17.7 3.633 17.7c-1.087-.744.084-.729.084-.729 1.205.084 1.838 1.236 1.838 1.236 1.07 1.835 2.809 1.305 3.495.998.108-.776.417-1.305.76-1.605-2.665-.3-5.466-1.332-5.466-5.93 0-1.31.465-2.38 1.235-3.22-.135-.303-.54-1.523.105-3.176 0 0 1.005-.322 3.3 1.23.96-.267 1.98-.399 3-.405 1.02.006 2.04.138 3 .405 2.28-1.552 3.285-1.23 3.285-1.23.645 1.653.24 2.873.12 3.176.765.84 1.23 1.91 1.23 3.22 0 4.61-2.805 5.625-5.475 5.92.42.36.81 1.096.81 2.22 0 1.606-.015 2.896-.015 3.286 0 .315.21.69.825.57C20.565 22.092 24 17.592 24 12.297c0-6.627-5.373-12-12-12"
     id="path9218" />
  <path
     style="fill:#f4f9e9;stroke:#f4f9e9;stroke-width:0.713986"
     d="M 8.2647585,23.66848 C 8.2057245,23.657452 7.9352415,23.560878 7.6636852,23.45387 3.9850119,22.004279 1.2795333,18.903041 0.34950608,15.069767 0.12190995,14.131689 0.04945257,13.466248 0.04797479,12.300537 0.04617381,10.879877 0.17399973,10.000841 0.56304386,8.7584973 1.1379932,6.9224977 2.0634083,5.3652013 3.391771,3.9982914 4.0949313,3.2747265 4.6049985,2.8460243 5.3667263,2.3383777 7.3809621,0.99600829 9.5763134,0.33196515 12,0.33196515 c 3.290578,0 6.275749,1.26735745 8.588193,3.64612575 1.37054,1.409849 2.319641,3.0226237 2.889019,4.9092078 0.84021,2.7839623 0.601727,5.8839483 -0.655627,8.5223613 -1.164749,2.444091 -3.095567,4.397193 -5.519259,5.58296 -1.486822,0.727412 -1.944957,0.816933 -2.22842,0.435442 -0.08775,-0.118098 -0.0906,-0.174579 -0.11374,-2.254025 -0.02277,-2.046556 -0.02761,-2.14567 -0.119435,-2.448553 -0.117563,-0.387769 -0.22475,-0.605352 -0.440736,-0.894669 l -0.166367,-0.222852 0.203401,-0.02783 c 3.285939,-0.449593 4.875276,-1.996246 5.160585,-5.021994 0.149511,-1.585588 -0.122997,-2.7341972 -0.890199,-3.7521416 l -0.271602,-0.3603696 0.09605,-0.3909721 c 0.07554,-0.3074649 0.09598,-0.5147682 0.09571,-0.970578 -3.43e-4,-0.6078444 -0.03671,-0.8520296 -0.21891,-1.470483 l -0.110679,-0.3756708 -0.30463,3.005e-4 c -0.686775,6.784e-4 -1.613917,0.3492279 -2.627473,0.987773 L 14.973275,6.4733457 14.549249,6.3736319 C 13.64547,6.1610992 13.212597,6.1181526 11.978533,6.1185819 10.75139,6.1190112 10.388149,6.1548923 9.4293926,6.3704042 L 8.9840093,6.4705185 8.6136502,6.2367705 C 7.6011169,5.5977205 6.6489282,5.238902 5.9638334,5.2382254 l -0.3045025,-3.005e-4 -0.1185917,0.3866 C 5.2610142,6.5364073 5.236092,7.4464027 5.4702389,8.1987186 L 5.5459466,8.4419678 5.4204528,8.5894991 C 5.0861586,8.9824967 4.7515582,9.5727512 4.5823397,10.067979 c -0.1952973,0.571549 -0.2413953,0.906075 -0.2396123,1.738819 0.0051,2.381421 0.7845171,3.983013 2.3978808,4.927305 0.6396756,0.374397 1.5335859,0.661346 2.5192461,0.808686 0.4631721,0.06924 0.489345,0.07832 0.4214572,0.146204 -0.2510495,0.251049 -0.5164431,0.798575 -0.6048198,1.247786 l -0.049674,0.252487 -0.2414945,0.09091 C 8.4378775,19.410984 8.0289531,19.490347 7.6979987,19.491205 6.8231051,19.493471 6.1820527,19.103329 5.5803954,18.202438 5.2717314,17.740261 4.954873,17.422409 4.6046181,17.223603 4.1629493,16.972909 3.621615,16.888576 3.3045244,17.021065 c -0.2909497,0.121567 -0.1653627,0.372101 0.3673008,0.732732 0.5099617,0.345261 0.89599,0.852118 1.2233329,1.606245 0.4135625,0.952756 0.9338237,1.43368 1.86843,1.727156 0.2884478,0.09057 0.397756,0.100355 1.0932992,0.09781 0.4250447,-0.0016 0.8549195,-0.02365 0.9552773,-0.0491 l 0.1824687,-0.04628 v 1.073027 c 0,0.904197 -0.011044,1.096299 -0.07019,1.220941 -0.1004939,0.211775 -0.3875172,0.335725 -0.6596848,0.284884 z"
     id="path9706" />
</svg>
