<?xml version="1.0" encoding="UTF-8" standalone="no"?>
<svg
   role="img"
   viewBox="0 0 24 24"
   version="1.1"
   id="svg3170"
   sodipodi:docname="gnubash.svg"
   inkscape:version="1.2.2 (b0a8486541, 2022-12-01)"
   xmlns:inkscape="http://www.inkscape.org/namespaces/inkscape"
   xmlns:sodipodi="http://sodipodi.sourceforge.net/DTD/sodipodi-0.dtd"
   xmlns="http://www.w3.org/2000/svg"
   xmlns:svg="http://www.w3.org/2000/svg">
  <defs
     id="defs3174" />
  <sodipodi:namedview
     id="namedview3172"
     pagecolor="#ffffff"
     bordercolor="#999999"
     borderopacity="1"
     inkscape:showpageshadow="0"
     inkscape:pageopacity="0"
     inkscape:pagecheckerboard="0"
     inkscape:deskcolor="#d1d1d1"
     showgrid="false"
     inkscape:zoom="23.291667"
     inkscape:cx="12"
     inkscape:cy="12.042934"
     inkscape:window-width="1366"
     inkscape:window-height="748"
     inkscape:window-x="0"
     inkscape:window-y="20"
     inkscape:window-maximized="1"
     inkscape:current-layer="svg3170" />
  <title
     id="title3166">GNU Bash</title>
  <path
     d="M21.038,4.9l-7.577-4.498C13.009,0.134,12.505,0,12,0c-0.505,0-1.009,0.134-1.462,0.403L2.961,4.9 C2.057,5.437,1.5,6.429,1.5,7.503v8.995c0,1.073,0.557,2.066,1.462,2.603l7.577,4.497C10.991,23.866,11.495,24,12,24 c0.505,0,1.009-0.134,1.461-0.402l7.577-4.497c0.904-0.537,1.462-1.529,1.462-2.603V7.503C22.5,6.429,21.943,5.437,21.038,4.9z M15.17,18.946l0.013,0.646c0.001,0.078-0.05,0.167-0.111,0.198l-0.383,0.22c-0.061,0.031-0.111-0.007-0.112-0.085L14.57,19.29 c-0.328,0.136-0.66,0.169-0.872,0.084c-0.04-0.016-0.057-0.075-0.041-0.142l0.139-0.584c0.011-0.046,0.036-0.092,0.069-0.121 c0.012-0.011,0.024-0.02,0.036-0.026c0.022-0.011,0.043-0.014,0.062-0.006c0.229,0.077,0.521,0.041,0.802-0.101 c0.357-0.181,0.596-0.545,0.592-0.907c-0.003-0.328-0.181-0.465-0.613-0.468c-0.55,0.001-1.064-0.107-1.072-0.917 c-0.007-0.667,0.34-1.361,0.889-1.8l-0.007-0.652c-0.001-0.08,0.048-0.168,0.111-0.2l0.37-0.236 c0.061-0.031,0.111,0.007,0.112,0.087l0.006,0.653c0.273-0.109,0.511-0.138,0.726-0.088c0.047,0.012,0.067,0.076,0.048,0.151 l-0.144,0.578c-0.011,0.044-0.036,0.088-0.065,0.116c-0.012,0.012-0.025,0.021-0.038,0.028c-0.019,0.01-0.038,0.013-0.057,0.009 c-0.098-0.022-0.332-0.073-0.699,0.113c-0.385,0.195-0.52,0.53-0.517,0.778c0.003,0.297,0.155,0.387,0.681,0.396 c0.7,0.012,1.003,0.318,1.01,1.023C16.105,17.747,15.736,18.491,15.17,18.946z M19.143,17.859c0,0.06-0.008,0.116-0.058,0.145 l-1.916,1.164c-0.05,0.029-0.09,0.004-0.09-0.056v-0.494c0-0.06,0.037-0.093,0.087-0.122l1.887-1.129 c0.05-0.029,0.09-0.004,0.09,0.056V17.859z M20.459,6.797l-7.168,4.427c-0.894,0.523-1.553,1.109-1.553,2.187v8.833 c0,0.645,0.26,1.063,0.66,1.184c-0.131,0.023-0.264,0.039-0.398,0.039c-0.42,0-0.833-0.114-1.197-0.33L3.226,18.64 c-0.741-0.44-1.201-1.261-1.201-2.142V7.503c0-0.881,0.46-1.702,1.201-2.142l7.577-4.498c0.363-0.216,0.777-0.33,1.197-0.33 c0.419,0,0.833,0.114,1.197,0.33l7.577,4.498c0.624,0.371,1.046,1.013,1.164,1.732C21.686,6.557,21.12,6.411,20.459,6.797z"
     id="path3168" />
  <path
     style="fill:#5b8fb9;stroke:#5b8fb9;stroke-width:0.114;opacity:1;stroke-opacity:1;stroke-dasharray:none"
     d="M 11.68893,23.951298 C 11.529648,23.934781 11.276294,23.880324 11.12592,23.830282 10.79693,23.720801 10.706471,23.668798 6.2680508,21.037567 2.9721833,19.083676 2.7355004,18.935422 2.4296771,18.633274 2.0578011,18.265867 1.8309229,17.903965 1.6625866,17.40966 L 1.5456172,17.06619 V 12 6.9338104 L 1.6625866,6.5903399 C 1.8309684,6.0959013 2.0578504,5.7340637 2.4298259,5.3667263 2.7373186,5.0630675 2.9802586,4.9118125 6.6941242,2.711761 8.86015,1.428632 10.732381,0.33312035 10.854638,0.27729062 c 0.709565,-0.32402956 1.583751,-0.32286258 2.297423,0.003067 0.125941,0.0575165 1.999215,1.15302818 4.16283,2.43447038 3.730381,2.2093891 3.950591,2.3465656 4.257599,2.6522114 0.37082,0.3691741 0.597511,0.7317085 0.764924,1.2233006 l 0.116969,0.3434705 V 12 17.06619 l -0.116969,0.34347 c -0.266458,0.78243 -0.729427,1.3258 -1.535983,1.802728 -0.271556,0.160576 -2.039356,1.209737 -3.928444,2.33147 -1.889087,1.121733 -3.550626,2.093964 -3.692307,2.160512 -0.469083,0.220331 -0.96177,0.301885 -1.49175,0.246928 z m 0.671761,-0.504559 c 0.07163,-0.0281 0.06504,-0.03889 -0.05387,-0.08814 -0.190026,-0.07871 -0.369341,-0.298485 -0.463076,-0.56756 -0.07603,-0.218266 -0.07989,-0.459053 -0.07989,-4.994974 0,-4.72929 6.87e-4,-4.767652 0.09015,-5.027728 0.162785,-0.47323 0.489606,-0.877469 0.987754,-1.221735 0.284854,-0.196861 7.601323,-4.7107858 7.799947,-4.8122092 0.11143,-0.056899 0.288621,-0.099123 0.460253,-0.109677 0.233821,-0.014377 0.306915,-9.66e-4 0.450805,0.082722 0.09445,0.054934 0.218436,0.1718022 0.275515,0.2597057 0.05708,0.087904 0.111755,0.1518492 0.121503,0.1421011 C 21.988942,7.0700846 21.822147,6.540992 21.692984,6.2946519 21.614142,6.1442666 21.426497,5.9035668 21.253541,5.7309506 20.97444,5.4523969 20.65897,5.2562572 17.06619,3.1275147 14.929159,1.8613123 13.099177,0.78444876 12.999563,0.73448475 12.424231,0.44591309 11.561583,0.45135542 10.977682,0.74724047 10.711206,0.88227435 3.2733666,5.2973375 3.0483005,5.4540807 2.6299597,5.745427 2.2783041,6.2370453 2.1126898,6.7620751 L 2.0178891,7.0626118 V 12 16.937388 l 0.095224,0.300537 c 0.1320962,0.416911 0.373465,0.803859 0.6793479,1.089092 0.2007176,0.187167 1.137564,0.762483 4.1431126,2.54428 2.136061,1.266333 3.9660524,2.343927 4.0666494,2.394654 0.356215,0.179624 1.106808,0.279514 1.358468,0.180788 z m 2.545738,-3.530255 c 0.281026,-0.160787 0.328493,-0.263481 0.28961,-0.626565 l -0.02886,-0.269511 0.239248,-0.258417 c 0.474901,-0.512949 0.691687,-1.043485 0.692933,-1.695801 7.26e-4,-0.379667 -0.01166,-0.451628 -0.107053,-0.622001 -0.15832,-0.282756 -0.365758,-0.381351 -0.899976,-0.427754 -0.280117,-0.02433 -0.473458,-0.06337 -0.544566,-0.109965 -0.101923,-0.06678 -0.108871,-0.09134 -0.09197,-0.325011 0.0144,-0.199014 0.0455,-0.287151 0.146259,-0.414431 0.182308,-0.230297 0.557413,-0.409636 0.851272,-0.406995 0.292341,0.0026 0.335041,-0.0435 0.433754,-0.46855 0.105594,-0.45468 0.08838,-0.483657 -0.270749,-0.455797 -0.158928,0.01233 -0.32277,0.03628 -0.364094,0.05324 -0.06793,0.02786 -0.07513,-0.0027 -0.07513,-0.318592 0,-0.4389 -0.04227,-0.464997 -0.378817,-0.233879 l -0.243723,0.167372 -0.01251,0.382011 -0.01251,0.38201 -0.225039,0.243069 c -0.734181,0.793003 -0.872121,2.059656 -0.260713,2.394021 0.129355,0.07074 0.292943,0.106221 0.615527,0.133498 0.393069,0.03324 0.451395,0.0492 0.553698,0.151556 0.09312,0.09316 0.113686,0.152081 0.110786,0.317308 -0.0098,0.560667 -0.60449,1.046134 -1.205433,0.984111 -0.204972,-0.02116 -0.237941,-0.01323 -0.290214,0.06973 -0.09806,0.155639 -0.220381,0.752544 -0.165468,0.807457 0.07709,0.07709 0.403425,0.0896 0.644998,0.02473 l 0.225403,-0.06053 v 0.159454 c 0,0.26165 0.05161,0.557842 0.09721,0.557842 0.02343,0 0.147688,-0.06012 0.276123,-0.133605 z m 3.296625,-1.346603 0.966892,-0.587099 v -0.318761 c 0,-0.262466 -0.01203,-0.318762 -0.06812,-0.318762 -0.03747,0 -0.510814,0.265588 -1.051879,0.590196 l -0.983753,0.590194 v 0.33789 c 0,0.315584 0.0056,0.336422 0.08499,0.315665 0.04674,-0.01222 0.520088,-0.286419 1.051878,-0.609323 z"
     id="path3656" />
</svg>
