<?xml version="1.0" encoding="UTF-8" standalone="no"?>
<svg
   role="img"
   viewBox="0 0 24 24"
   version="1.1"
   id="svg3708"
   sodipodi:docname="javascript.svg"
   inkscape:version="1.2.2 (b0a8486541, 2022-12-01)"
   xmlns:inkscape="http://www.inkscape.org/namespaces/inkscape"
   xmlns:sodipodi="http://sodipodi.sourceforge.net/DTD/sodipodi-0.dtd"
   xmlns="http://www.w3.org/2000/svg"
   xmlns:svg="http://www.w3.org/2000/svg">
  <defs
     id="defs3712" />
  <sodipodi:namedview
     id="namedview3710"
     pagecolor="#ffffff"
     bordercolor="#999999"
     borderopacity="1"
     inkscape:showpageshadow="0"
     inkscape:pageopacity="0"
     inkscape:pagecheckerboard="0"
     inkscape:deskcolor="#d1d1d1"
     showgrid="false"
     inkscape:zoom="23.291667"
     inkscape:cx="11.978533"
     inkscape:cy="12.042934"
     inkscape:window-width="1366"
     inkscape:window-height="748"
     inkscape:window-x="0"
     inkscape:window-y="20"
     inkscape:window-maximized="1"
     inkscape:current-layer="svg3708" />
  <title
     id="title3704">JavaScript</title>
  <path
     d="M0 0h24v24H0V0zm22.034 18.276c-.175-1.095-.888-2.015-3.003-2.873-.736-.345-1.554-.585-1.797-1.14-.091-.33-.105-.51-.046-.705.15-.646.915-.84 1.515-.66.39.12.75.42.976.9 1.034-.676 1.034-.676 1.755-1.125-.27-.42-.404-.601-.586-.78-.63-.705-1.469-1.065-2.834-1.034l-.705.089c-.676.165-1.32.525-1.71 1.005-1.14 1.291-.811 3.541.569 4.471 1.365 1.02 3.361 1.244 3.616 2.205.24 1.17-.87 1.545-1.966 1.41-.811-.18-1.26-.586-1.755-1.336l-1.83 1.051c.21.48.45.689.81 1.109 1.74 1.756 6.09 1.666 6.871-1.004.029-.09.24-.705.074-1.65l.046.067zm-8.983-7.245h-2.248c0 1.938-.009 3.864-.009 5.805 0 1.232.063 2.363-.138 2.711-.33.689-1.18.601-1.566.48-.396-.196-.597-.466-.83-.855-.063-.105-.11-.196-.127-.196l-1.825 1.125c.305.63.75 1.172 1.324 1.517.855.51 2.004.675 3.207.405.783-.226 1.458-.691 1.811-1.411.51-.93.402-2.07.397-3.346.012-2.054 0-4.109 0-6.179l.004-.056z"
     id="path3706" />
  <path
     style="fill:#5b8fb9;stroke:#5b8fb9;stroke-width:0.0429338"
     d="M 0,12 V 0 H 12 24 V 12 24 H 12 0 Z m 10.683821,10.069938 c 0.556319,-0.114793 1.039663,-0.361335 1.435298,-0.732113 0.356354,-0.333964 0.554522,-0.639492 0.722303,-1.11362 0.240386,-0.679304 0.237989,-0.615636 0.22119,-5.873579 l -0.01073,-3.359571 h -1.136127 -1.136126 l -0.01235,4.13238 -0.01235,4.132379 -0.114329,0.243892 c -0.136096,0.290324 -0.365674,0.474991 -0.6860636,0.551851 -0.2501749,0.06002 -0.647593,0.03151 -0.8728547,-0.06261 C 8.8643901,19.898159 8.5478842,19.582743 8.3506261,19.260418 8.2561717,19.106076 8.156947,18.97911 8.1301271,18.97827 c -0.045628,-0.0014 -1.7541265,1.032849 -1.8277396,1.106462 -0.047876,0.04788 0.3461788,0.669361 0.613146,0.967026 0.4460367,0.497326 1.1092057,0.86399 1.8429638,1.018967 0.514256,0.108617 1.3968707,0.108256 1.9253237,-7.85e-4 z m 8.31439,-0.04955 c 1.495818,-0.183308 2.55636,-0.962503 2.944676,-2.163497 0.138592,-0.42864 0.155787,-1.479506 0.03155,-1.927848 -0.121821,-0.439605 -0.312219,-0.766265 -0.665545,-1.141853 -0.510673,-0.542847 -1.062063,-0.883849 -2.314589,-1.431431 -1.02,-0.445926 -1.242687,-0.564424 -1.482848,-0.789067 -0.336819,-0.315054 -0.424791,-0.74685 -0.235142,-1.154144 0.237848,-0.510804 0.942918,-0.703762 1.559867,-0.426891 0.280999,0.126104 0.626491,0.446044 0.759572,0.703394 0.04499,0.087 0.09086,0.127 0.123433,0.107642 0.02851,-0.01694 0.216061,-0.136621 0.416776,-0.265951 0.200716,-0.129331 0.57746,-0.369419 0.837209,-0.533529 0.25975,-0.16411 0.479566,-0.30513 0.48848,-0.313377 0.04184,-0.03871 -0.523008,-0.748771 -0.806052,-1.013262 -0.530183,-0.495433 -1.120313,-0.73103 -2.03136,-0.810977 -1.712304,-0.150261 -3.121415,0.650931 -3.585511,2.038651 -0.10429,0.311843 -0.116155,0.409647 -0.117608,0.969377 -0.0014,0.535584 0.01243,0.667517 0.09898,0.944544 0.37031,1.185352 1.020786,1.761674 2.883305,2.554607 1.219985,0.519386 1.639256,0.788082 1.808758,1.159167 0.153096,0.335169 0.08446,0.780281 -0.162469,1.0536 -0.397333,0.4398 -1.362025,0.596313 -2.063817,0.334837 -0.5257,-0.195868 -0.913101,-0.533802 -1.410862,-1.230712 -0.0055,-0.0077 -0.426243,0.224137 -0.934976,0.515206 -0.801626,0.458646 -0.921576,0.540666 -0.899519,0.615083 0.08197,0.276548 0.724523,1.058876 1.106675,1.347404 0.920767,0.695185 2.313676,1.022915 3.651022,0.859027 z"
     id="path3714" />
</svg>
