<?xml version="1.0" encoding="UTF-8" standalone="no"?>
<svg
   role="img"
   viewBox="0 0 24 24"
   version="1.1"
   id="svg10484"
   sodipodi:docname="linkedin.svg"
   inkscape:version="1.2.2 (b0a8486541, 2022-12-01)"
   xmlns:inkscape="http://www.inkscape.org/namespaces/inkscape"
   xmlns:sodipodi="http://sodipodi.sourceforge.net/DTD/sodipodi-0.dtd"
   xmlns="http://www.w3.org/2000/svg"
   xmlns:svg="http://www.w3.org/2000/svg">
  <defs
     id="defs10488" />
  <sodipodi:namedview
     id="namedview10486"
     pagecolor="#ffffff"
     bordercolor="#999999"
     borderopacity="1"
     inkscape:showpageshadow="0"
     inkscape:pageopacity="0"
     inkscape:pagecheckerboard="0"
     inkscape:deskcolor="#d1d1d1"
     showgrid="false"
     inkscape:zoom="23.291667"
     inkscape:cx="12"
     inkscape:cy="12.042934"
     inkscape:window-width="1366"
     inkscape:window-height="748"
     inkscape:window-x="0"
     inkscape:window-y="20"
     inkscape:window-maximized="1"
     inkscape:current-layer="svg10484" />
  <title
     id="title10480">LinkedIn</title>
  <path
     d="M20.447 20.452h-3.554v-5.569c0-1.328-.027-3.037-1.852-3.037-1.853 0-2.136 1.445-2.136 2.939v5.667H9.351V9h3.414v1.561h.046c.477-.9 1.637-1.85 3.37-1.85 3.601 0 4.267 2.37 4.267 5.455v6.286zM5.337 7.433c-1.144 0-2.063-.926-2.063-2.065 0-1.138.92-2.063 2.063-2.063 1.14 0 2.064.925 2.064 2.063 0 1.139-.925 2.065-2.064 2.065zm1.782 13.019H3.555V9h3.564v11.452zM22.225 0H1.771C.792 0 0 .774 0 1.729v20.542C0 23.227.792 24 1.771 24h20.451C23.2 24 24 23.227 24 22.271V1.729C24 .774 23.2 0 22.222 0h.003z"
     id="path10482" />
  <path
     style="fill:#f4f9e9;stroke:#f4f9e9;stroke-width:0.713986"
     d="M 1.5284685,23.953522 C 0.85475635,23.866252 0.25769405,23.343279 0.08800712,22.691807 0.0287925,22.464467 0.02146691,21.287376 0.02146691,12 0.02146691,0.49346014 0.00257537,1.2895554 0.28611379,0.84769906 0.56996604,0.40535369 1.015385,0.12176102 1.5469492,0.04494103 1.9408211,-0.01198009 21.98474,-0.01373695 22.422414,0.04311129 c 0.725802,0.09427225 1.314948,0.59462689 1.489579,1.26508141 0.05921,0.2273403 0.06654,1.404431 0.06654,10.6918073 0,9.287376 -0.0073,10.464467 -0.06654,10.691807 -0.174631,0.670455 -0.763777,1.17081 -1.489579,1.265082 -0.387949,0.05039 -20.5039742,0.04715 -20.8939455,-0.0034 z M 7.1484794,14.726297 V 8.9731664 h -1.80322 -1.80322 v 5.7531306 5.753131 h 1.80322 1.80322 z m 5.8060946,2.372093 c 0.01327,-3.333545 0.01478,-3.38575 0.107993,-3.71652 0.255594,-0.907019 0.764109,-1.372996 1.62363,-1.48781 0.664115,-0.08871 1.259674,0.07738 1.599534,0.446084 0.217471,0.235928 0.331194,0.457657 0.4494,0.87621 0.09132,0.323354 0.09323,0.391483 0.106363,3.796168 l 0.01337,3.466906 h 1.801546 1.801547 l -3.6e-5,-3.595707 c -4.3e-5,-4.274919 -0.02717,-4.695718 -0.368759,-5.72093 C 19.877622,10.527892 19.644249,10.134998 19.231098,9.7181925 18.93403,9.4184965 18.820287,9.3374855 18.436822,9.1524867 17.886921,8.887191 17.40967,8.7666981 16.718591,8.7186779 c -0.881653,-0.061262 -1.632442,0.044 -2.244509,0.3146851 -0.596623,0.2638549 -1.287823,0.8399966 -1.556844,1.297688 l -0.122963,0.209199 -0.0117,-0.7835416 -0.0117,-0.783542 H 11.054488 9.3381038 v 5.7531306 5.753131 H 11.139612 12.94112 Z M 5.9999201,7.3403047 C 6.5200482,7.1813156 6.964894,6.779502 7.2255246,6.2332585 7.3542221,5.9635277 7.3783702,5.8626084 7.3963179,5.5194826 7.4203312,5.0603927 7.366156,4.7738301 7.1880176,4.4176671 6.9908436,4.0234456 6.6787702,3.7190114 6.2581996,3.5106105 5.9123755,3.3392478 5.8673882,3.3282064 5.45242,3.3128455 4.7432827,3.2865952 4.2877327,3.464369 3.8273794,3.9470011 3.0482996,4.7637849 3.0694253,6.0461375 3.8751407,6.8461511 4.4297809,7.3968665 5.2163948,7.5798067 5.9999201,7.3403047 Z"
     id="path10970" />
</svg>
