<?xml version="1.0" encoding="UTF-8" standalone="no"?>
<svg
   role="img"
   viewBox="0 0 24 24"
   version="1.1"
   id="svg3766"
   sodipodi:docname="linux.svg"
   inkscape:version="1.2.2 (b0a8486541, 2022-12-01)"
   xmlns:inkscape="http://www.inkscape.org/namespaces/inkscape"
   xmlns:sodipodi="http://sodipodi.sourceforge.net/DTD/sodipodi-0.dtd"
   xmlns="http://www.w3.org/2000/svg"
   xmlns:svg="http://www.w3.org/2000/svg">
  <defs
     id="defs3770" />
  <sodipodi:namedview
     id="namedview3768"
     pagecolor="#ffffff"
     bordercolor="#999999"
     borderopacity="1"
     inkscape:showpageshadow="0"
     inkscape:pageopacity="0"
     inkscape:pagecheckerboard="0"
     inkscape:deskcolor="#d1d1d1"
     showgrid="false"
     inkscape:zoom="22.627417"
     inkscape:cx="7.8223688"
     inkscape:cy="10.054175"
     inkscape:window-width="1366"
     inkscape:window-height="748"
     inkscape:window-x="0"
     inkscape:window-y="20"
     inkscape:window-maximized="1"
     inkscape:current-layer="svg3766" />
  <title
     id="title3762">Linux</title>
  <path
     d="M12.504 0c-.155 0-.315.008-.48.021-4.226.333-3.105 4.807-3.17 6.298-.076 1.092-.3 1.953-1.05 3.02-.885 1.051-2.127 2.75-2.716 4.521-.278.832-.41 1.684-.287 2.489a.424.424 0 00-.11.135c-.26.268-.45.6-.663.839-.199.199-.485.267-.797.4-.313.136-.658.269-.864.68-.09.189-.136.394-.132.602 0 .199.027.4.055.536.058.399.116.728.04.97-.249.68-.28 1.145-.106 1.484.174.334.535.47.94.601.81.2 1.91.135 2.774.6.926.466 1.866.67 2.616.47.526-.116.97-.464 1.208-.946.587-.003 1.23-.269 2.26-.334.699-.058 1.574.267 2.577.2.025.134.063.198.114.333l.003.003c.391.778 1.113 1.132 1.884 1.071.771-.06 1.592-.536 2.257-1.306.631-.765 1.683-1.084 2.378-1.503.348-.199.629-.469.649-.853.023-.4-.2-.811-.714-1.376v-.097l-.003-.003c-.17-.2-.25-.535-.338-.926-.085-.401-.182-.786-.492-1.046h-.003c-.059-.054-.123-.067-.188-.135a.357.357 0 00-.19-.064c.431-1.278.264-2.55-.173-3.694-.533-1.41-1.465-2.638-2.175-3.483-.796-1.005-1.576-1.957-1.56-3.368.026-2.152.236-6.133-3.544-6.139zm.529 3.405h.013c.213 0 .396.062.584.198.19.135.33.332.438.533.105.259.158.459.166.724 0-.02.006-.04.006-.06v.105a.086.086 0 01-.004-.021l-.004-.024a1.807 1.807 0 01-.15.706.953.953 0 01-.213.335.71.71 0 00-.088-.042c-.104-.045-.198-.064-.284-.133a1.312 1.312 0 00-.22-.066c.05-.06.146-.133.183-.198.053-.128.082-.264.088-.402v-.02a1.21 1.21 0 00-.061-.4c-.045-.134-.101-.2-.183-.333-.084-.066-.167-.132-.267-.132h-.016c-.093 0-.176.03-.262.132a.8.8 0 00-.205.334 1.18 1.18 0 00-.09.4v.019c.002.089.008.179.02.267-.193-.067-.438-.135-.607-.202a1.635 1.635 0 01-.018-.2v-.02a1.772 1.772 0 01.15-.768c.082-.22.232-.406.43-.533a.985.985 0 01.594-.2zm-2.962.059h.036c.142 0 .27.048.399.135.146.129.264.288.344.465.09.199.14.4.153.667v.004c.007.134.006.2-.002.266v.08c-.03.007-.056.018-.083.024-.152.055-.274.135-.393.2.012-.09.013-.18.003-.267v-.015c-.012-.133-.04-.2-.082-.333a.613.613 0 00-.166-.267.248.248 0 00-.183-.064h-.021c-.071.006-.13.04-.186.132a.552.552 0 00-.12.27.944.944 0 00-.023.33v.015c.012.135.037.2.08.334.046.134.098.2.166.268.01.009.02.018.034.024-.07.057-.117.07-.176.136a.304.304 0 01-.131.068 2.62 2.62 0 01-.275-.402 1.772 1.772 0 01-.155-.667 1.759 1.759 0 01.08-.668 1.43 1.43 0 01.283-.535c.128-.133.26-.2.418-.2zm1.37 1.706c.332 0 .733.065 1.216.399.293.2.523.269 1.052.468h.003c.255.136.405.266.478.399v-.131a.571.571 0 01.016.47c-.123.31-.516.643-1.063.842v.002c-.268.135-.501.333-.775.465-.276.135-.588.292-1.012.267a1.139 1.139 0 01-.448-.067 3.566 3.566 0 01-.322-.198c-.195-.135-.363-.332-.612-.465v-.005h-.005c-.4-.246-.616-.512-.686-.71-.07-.268-.005-.47.193-.6.224-.135.38-.271.483-.336.104-.074.143-.102.176-.131h.002v-.003c.169-.202.436-.47.839-.601.139-.036.294-.065.466-.065zm2.8 2.142c.358 1.417 1.196 3.475 1.735 4.473.286.534.855 1.659 1.102 3.024.156-.005.33.018.513.064.646-1.671-.546-3.467-1.089-3.966-.22-.2-.232-.335-.123-.335.59.534 1.365 1.572 1.646 2.757.13.535.16 1.104.021 1.67.067.028.135.06.205.067 1.032.534 1.413.938 1.23 1.537v-.043c-.06-.003-.12 0-.18 0h-.016c.151-.467-.182-.825-1.065-1.224-.915-.4-1.646-.336-1.77.465-.008.043-.013.066-.018.135-.068.023-.139.053-.209.064-.43.268-.662.669-.793 1.187-.13.533-.17 1.156-.205 1.869v.003c-.02.334-.17.838-.319 1.35-1.5 1.072-3.58 1.538-5.348.334a2.645 2.645 0 00-.402-.533 1.45 1.45 0 00-.275-.333c.182 0 .338-.03.465-.067a.615.615 0 00.314-.334c.108-.267 0-.697-.345-1.163-.345-.467-.931-.995-1.788-1.521-.63-.4-.986-.87-1.15-1.396-.165-.534-.143-1.085-.015-1.645.245-1.07.873-2.11 1.274-2.763.107-.065.037.135-.408.974-.396.751-1.14 2.497-.122 3.854a8.123 8.123 0 01.647-2.876c.564-1.278 1.743-3.504 1.836-5.268.048.036.217.135.289.202.218.133.38.333.59.465.21.201.477.335.876.335.039.003.075.006.11.006.412 0 .73-.134.997-.268.29-.134.52-.334.74-.4h.005c.467-.135.835-.402 1.044-.7zm2.185 8.958c.037.6.343 1.245.882 1.377.588.134 1.434-.333 1.791-.765l.211-.01c.315-.007.577.01.847.268l.003.003c.208.199.305.53.391.876.085.4.154.78.409 1.066.486.527.645.906.636 1.14l.003-.007v.018l-.003-.012c-.015.262-.185.396-.498.595-.63.401-1.746.712-2.457 1.57-.618.737-1.37 1.14-2.036 1.191-.664.053-1.237-.2-1.574-.898l-.005-.003c-.21-.4-.12-1.025.056-1.69.176-.668.428-1.344.463-1.897.037-.714.076-1.335.195-1.814.12-.465.308-.797.641-.984l.045-.022zm-10.814.049h.01c.053 0 .105.005.157.014.376.055.706.333 1.023.752l.91 1.664.003.003c.243.533.754 1.064 1.189 1.637.434.598.77 1.131.729 1.57v.006c-.057.744-.48 1.148-1.125 1.294-.645.135-1.52.002-2.395-.464-.968-.536-2.118-.469-2.857-.602-.369-.066-.61-.2-.723-.4-.11-.2-.113-.602.123-1.23v-.004l.002-.003c.117-.334.03-.752-.027-1.118-.055-.401-.083-.71.043-.94.16-.334.396-.4.69-.533.294-.135.64-.202.915-.47h.002v-.002c.256-.268.445-.601.668-.838.19-.201.38-.336.663-.336zm7.159-9.074c-.435.201-.945.535-1.488.535-.542 0-.97-.267-1.28-.466-.154-.134-.28-.268-.373-.335-.164-.134-.144-.333-.074-.333.109.016.129.134.199.2.096.066.215.2.36.333.292.2.68.467 1.167.467.485 0 1.053-.267 1.398-.466.195-.135.445-.334.648-.467.156-.136.149-.267.279-.267.128.016.034.134-.147.332a8.097 8.097 0 01-.69.468zm-1.082-1.583V5.64c-.006-.02.013-.042.029-.05.074-.043.18-.027.26.004.063 0 .16.067.15.135-.006.049-.085.066-.135.066-.055 0-.092-.043-.141-.068-.052-.018-.146-.008-.163-.065zm-.551 0c-.02.058-.113.049-.166.066-.047.025-.086.068-.14.068-.05 0-.13-.02-.136-.068-.01-.066.088-.133.15-.133.08-.031.184-.047.259-.005.019.009.036.03.03.05v.02h.003z"
     id="path3764" />
  <path
     style="fill:#5b8fb9;stroke:#5b8fb9;stroke-width:0.0429338"
     d="m 15.811961,23.871215 c -0.506096,-0.17994 -1.041538,-0.72166 -1.150209,-1.163695 -0.02696,-0.109676 -0.03646,-0.112346 -0.49971,-0.140481 -0.259725,-0.01578 -0.746173,-0.06912 -1.080998,-0.118546 -0.773728,-0.114216 -1.345402,-0.09267 -2.261724,0.08526 -0.366011,0.07107 -0.764478,0.141725 -0.8854826,0.157012 -0.1767499,0.02233 -0.2293228,0.04824 -0.2673802,0.131765 C 9.5917292,22.986539 9.2749292,23.308721 9.0707,23.428407 8.3736945,23.836879 7.3580823,23.795503 6.2683363,23.314238 5.2969346,22.885237 5.2257678,22.865903 4.0572451,22.713524 3.3102441,22.616113 3.0071098,22.543544 2.7066638,22.390199 2.1690845,22.115824 2.0265231,21.638648 2.2494707,20.859901 c 0.1588388,-0.554816 0.1616667,-0.588325 0.09171,-1.086685 -0.076618,-0.545809 -0.080035,-1.018911 -0.00875,-1.212245 0.027721,-0.07519 0.1115661,-0.223178 0.1863235,-0.328868 0.1399924,-0.197917 0.127223,-0.190457 1.1736655,-0.685664 0.282856,-0.133856 0.3508742,-0.19035 0.5581395,-0.463578 0.129816,-0.17113 0.3096338,-0.39945 0.3995951,-0.507379 L 4.8137149,16.379249 4.7857938,16.012016 C 4.6598964,14.356147 5.6796523,12.014849 7.5178922,9.7392829 8.2433599,8.8412235 8.6148893,8.0621964 8.7841988,7.0840787 8.8687677,6.5955177 8.8769319,6.1300225 8.8263744,4.6794749 8.7734653,3.1614543 8.8652857,2.493035 9.2303322,1.7388193 9.818461,0.52369567 11.140095,-0.08581127 12.891643,0.05030701 c 1.831576,0.14233752 2.865063,1.39205499 3.078561,3.72266809 0.02514,0.2744165 0.05224,1.0495652 0.06022,1.7225526 0.01291,1.0881158 0.02473,1.2616483 0.106766,1.5670841 0.183266,0.6823672 0.541352,1.3069395 1.2923,2.2540251 1.546732,1.9507181 2.144433,2.9567721 2.512153,4.2284701 0.272751,0.943262 0.307844,1.954236 0.09577,2.759007 -0.07802,0.296076 -0.09071,0.397138 -0.04985,0.397138 0.116388,0 0.49382,0.350207 0.59711,0.554039 0.05829,0.115029 0.163704,0.444383 0.234254,0.731897 0.14843,0.604899 0.301491,0.934277 0.62943,1.354494 0.526528,0.674687 0.532914,1.242314 0.01855,1.648894 -0.112097,0.08861 -0.539533,0.331642 -0.949856,0.540075 -0.977331,0.496456 -1.169565,0.629557 -1.740835,1.20533 -0.648517,0.653629 -1.187345,1.007553 -1.761696,1.157153 -0.339911,0.08854 -0.921736,0.07793 -1.202571,-0.02192 z m 1.335788,-0.384166 c 0.555723,-0.192892 0.926512,-0.460272 1.569308,-1.131647 0.44169,-0.461327 0.778426,-0.690781 1.685766,-1.148689 1.051986,-0.530906 1.206796,-0.662582 1.199615,-1.020351 -0.005,-0.246828 -0.155519,-0.555737 -0.432631,-0.887614 -0.348289,-0.417122 -0.423777,-0.572827 -0.581699,-1.199849 -0.169247,-0.671994 -0.28348,-0.899219 -0.54227,-1.078656 -0.161009,-0.111639 -0.224184,-0.12748 -0.561623,-0.140823 -0.379421,-0.015 -0.380541,-0.01473 -0.540441,0.128852 -0.551326,0.495081 -1.326995,0.752125 -1.74394,0.577913 -0.183319,-0.0766 -0.430919,-0.324675 -0.542666,-0.543717 -0.04818,-0.09444 -0.118027,-0.306449 -0.155217,-0.471131 -0.04021,-0.178074 -0.08973,-0.299423 -0.122184,-0.299423 -0.100184,0 -0.395475,0.329324 -0.504989,0.563191 -0.155966,0.333064 -0.240064,0.759147 -0.292871,1.483826 -0.06496,0.891535 -0.136665,1.307856 -0.359825,2.089305 -0.273599,0.95807 -0.335231,1.295656 -0.317024,1.736474 0.01201,0.290873 0.03883,0.420053 0.120551,0.580801 0.215381,0.423641 0.553947,0.709514 0.985669,0.832262 0.263064,0.07479 0.816448,0.04036 1.136471,-0.07072 z M 8.6830004,23.227497 C 9.0725216,23.107186 9.3239751,22.902162 9.4862267,22.572583 9.8465547,21.840653 9.6603508,21.303015 8.5709491,19.929845 7.9577423,19.156909 7.9572919,19.156208 7.3384126,18.012242 6.8989305,17.199883 6.7596502,16.980239 6.5474061,16.76483 6.2586422,16.47176 6.041626,16.352523 5.7448093,16.323852 5.2859455,16.279529 5.0935649,16.405063 4.5664101,17.092789 4.20287,17.567063 4.1023204,17.64049 3.4566164,17.903218 2.9494785,18.109565 2.7852742,18.22814 2.6662913,18.473927 c -0.1114445,0.230213 -0.1177067,0.573091 -0.022207,1.215912 0.073043,0.491659 0.066087,0.575813 -0.093159,1.127129 -0.1871881,0.648051 -0.1197493,1.035994 0.2131587,1.226197 0.2323277,0.132738 0.4698198,0.181795 1.2716941,0.262682 1.0187541,0.102765 1.4572081,0.208975 2.0057297,0.485868 0.4090464,0.206486 0.874296,0.38156 1.1991182,0.45123 0.4452752,0.09551 1.1060634,0.08843 1.4423743,-0.01545 z m 4.3366536,-1.904145 c 0.506864,-0.1321 1.106017,-0.389532 1.567283,-0.673397 l 0.342257,-0.210628 0.140256,-0.527356 c 0.105371,-0.396192 0.154771,-0.70889 0.198618,-1.25723 0.09672,-1.209614 0.188622,-1.657191 0.423146,-2.060823 0.136626,-0.235144 0.438784,-0.525685 0.603101,-0.579915 0.118303,-0.03904 0.144938,-0.07745 0.205982,-0.297012 0.160552,-0.577472 0.636611,-0.735237 1.415217,-0.468998 0.547027,0.187051 1.125562,0.544534 1.276505,0.788765 0.0521,0.08431 0.08526,0.21335 0.08526,0.33182 0,0.172202 0.01188,0.196134 0.106325,0.214188 0.140629,0.02688 0.151278,0.01074 0.151278,-0.229345 0,-0.266068 -0.04697,-0.381673 -0.243407,-0.599107 -0.224595,-0.248599 -0.829064,-0.641693 -1.14608,-0.745308 -0.05922,-0.01936 -0.07277,-0.05111 -0.05215,-0.122229 0.01532,-0.05284 0.03904,-0.269961 0.05272,-0.482484 0.07031,-1.092734 -0.452031,-2.402647 -1.386739,-3.477638 -0.182149,-0.209487 -0.331259,-0.343471 -0.382246,-0.343471 -0.137553,0 -0.07578,0.145521 0.178267,0.419917 0.961895,1.038961 1.431493,2.640656 1.074484,3.664824 -0.06125,0.175724 -0.05934,0.175141 -0.397476,0.120889 -0.131631,-0.02112 -0.136503,-0.0304 -0.23058,-0.439184 -0.1648,-0.716091 -0.417272,-1.363491 -1.008392,-2.585766 -0.824634,-1.705121 -1.198543,-2.6636462 -1.722542,-4.4157819 -0.0113,-0.037795 -0.104791,0.022959 -0.268359,0.174395 -0.146093,0.1352557 -0.355735,0.2761477 -0.50155,0.3370695 -0.137794,0.057571 -0.39661,0.1801202 -0.575146,0.2723305 -0.692,0.3574042 -0.843337,0.4217804 -1.134003,0.4823862 -0.342551,0.071424 -0.685988,0.04665 -0.950895,-0.068594 C 10.746333,8.5045782 10.46054,8.3040532 10.205692,8.100058 9.5678765,7.5895127 9.5851093,7.5962361 9.5546683,7.846059 9.4196892,8.9538015 9.074901,9.9722743 8.1273132,12.062336 c -0.273515,0.603282 -0.5520494,1.258517 -0.6189651,1.456077 -0.1585422,0.468073 -0.3204417,1.206265 -0.3826146,1.744557 -0.027274,0.236136 -0.055692,0.435616 -0.063152,0.44329 -0.038424,0.03953 -0.3315817,-0.655488 -0.3861849,-0.915562 -0.1764202,-0.840285 0.00516,-1.654092 0.6672322,-2.990475 0.3140055,-0.633812 0.3937735,-0.853352 0.3093231,-0.851331 -0.083815,0.002 -0.8281722,1.398902 -1.0617274,1.99249 -0.3437339,0.873609 -0.4383621,1.794207 -0.2474625,2.407455 0.2040401,0.655461 0.5299623,1.039269 1.33983,1.577792 0.9271643,0.616519 1.5567019,1.222494 1.8229752,1.754743 0.3258256,0.651287 0.1127541,1.154048 -0.4890878,1.154048 -0.1547613,0 -0.2352073,0.05551 -0.1348229,0.09302 0.036995,0.01383 0.5732201,0.674449 0.6381493,0.786192 0.1056184,0.181768 0.9096982,0.549255 1.4702492,0.671945 0.530382,0.116087 1.450628,0.0874 2.028599,-0.06323 z M 11.895606,8.3029043 c 0.270539,-0.080269 0.586611,-0.2337883 0.842552,-0.4092356 0.09901,-0.067872 0.357492,-0.2117281 0.574404,-0.3196809 0.400327,-0.1992352 0.770395,-0.4983052 0.880811,-0.7118279 0.03336,-0.064508 0.06065,-0.2035892 0.06065,-0.3090694 0,-0.1859476 -0.0076,-0.1968446 -0.249225,-0.3582079 -0.137074,-0.091534 -0.412387,-0.2281348 -0.611807,-0.3035562 -0.358428,-0.1355588 -1.18258,-0.5935475 -0.995855,-0.5534061 0.09081,0.019522 0.0966,0.00688 0.0966,-0.2108887 0,-0.4375647 0.269241,-0.9195182 0.513685,-0.9195182 0.437652,0 0.693304,0.9346841 0.363015,1.3272108 l -0.105578,0.1254719 0.233291,0.1068043 C 13.898007,5.9500615 13.892005,5.9503376 14.01334,5.7432934 14.372961,5.1296465 14.300121,4.2921675 13.842896,3.783623 13.574821,3.4854592 13.33559,3.3770889 12.996069,3.4000146 c -0.677871,0.045772 -1.088095,0.5365336 -1.136497,1.359624 -0.01318,0.2240492 -0.0044,0.3692496 0.02336,0.3864043 0.02446,0.015114 -0.161382,0.027839 -0.412973,0.028277 -0.410664,7.127e-4 -0.482139,0.01285 -0.698998,0.1186737 -0.132857,0.064832 -0.33572,0.2089211 -0.450805,0.3201974 C 10.205073,5.724468 9.9370304,5.9430814 9.7245081,6.0989994 9.5119857,6.2549178 9.3131536,6.429254 9.282659,6.4864135 9.251039,6.5456825 9.235171,6.6708301 9.245731,6.7776554 c 0.034003,0.3439642 0.1869806,0.4953986 1.356892,1.3432014 0.105146,0.076196 0.259707,0.1630476 0.34347,0.1930029 0.213434,0.076328 0.673211,0.071023 0.949513,-0.010955 z M 9.9717252,5.8050457 C 10.038432,5.7468485 10.03987,5.7310862 9.9840957,5.6694565 9.7751918,5.4386203 9.7053325,4.8519512 9.8560989,4.5945523 9.9727694,4.3953634 10.056932,4.3506513 10.195959,4.4139967 c 0.140731,0.064121 0.278304,0.3620411 0.310289,0.671939 l 0.02353,0.2279691 0.255447,-0.1131241 0.255446,-0.1131242 -0.02209,-0.3453346 C 10.990943,4.310318 10.867524,3.9738287 10.643258,3.7190487 10.233785,3.2538624 9.7090836,3.3753816 9.4196952,4.0024221 9.3052555,4.2503878 9.2953382,4.3113527 9.2955409,4.765653 c 2.576e-4,0.5349861 0.055515,0.7273086 0.3018719,1.0502988 0.121735,0.159603 0.1808449,0.1578805 0.3743124,-0.010906 z"
     id="path3772" />
  <path
     style="fill:#5b8fb9;stroke:#5b8fb9;stroke-width:0.0107335"
     d="m 11.894441,5.7470966 c -0.0374,-0.020295 -0.07981,-0.0369 -0.09426,-0.0369 -0.04773,0 -0.09736,-0.027737 -0.103069,-0.057601 -0.0088,-0.046271 0.05026,-0.082155 0.134537,-0.081682 0.05967,3.356e-4 0.19913,0.037834 0.232754,0.062583 0.06524,0.048018 0.06989,0.1188693 0.0092,0.1400274 -0.05736,0.019995 -0.107151,0.01265 -0.179156,-0.026428 z"
     id="path3774" />
  <path
     style="fill:#5b8fb9;stroke:#5b8fb9;stroke-width:0.0107335"
     d="m 10.736136,5.7639817 c -0.03962,-0.024158 -0.04518,-0.056635 -0.01586,-0.092694 0.02956,-0.036355 0.06828,-0.05626 0.153562,-0.078939 0.09048,-0.024061 0.149037,-0.026011 0.202369,-0.00674 0.04516,0.01632 0.05971,0.037527 0.0506,0.07379 -0.0072,0.028747 -0.03507,0.041986 -0.11753,0.05585 -0.02244,0.00377 -0.06324,0.021086 -0.09065,0.038471 -0.06083,0.038575 -0.1297,0.042447 -0.182491,0.01026 z"
     id="path3776" />
  <path
     style="fill:#5b8fb9;stroke:#5b8fb9;stroke-width:0.0107335"
     d="M 12.26297,5.3391669 C 12.175619,5.2967929 11.949917,5.22153 11.877733,5.2107052 c -0.05504,-0.00825 -0.07772,-0.026448 -0.03297,-0.026448 0.01567,0 0.04132,-0.00726 0.05698,-0.016133 0.02695,-0.015262 0.04154,-0.011854 0.269992,0.063071 0.178378,0.058501 0.233086,0.080253 0.209303,0.083217 -0.02762,0.00344 -0.03191,0.00821 -0.03018,0.03353 0.0011,0.016234 -0.0013,0.029102 -0.0054,0.028594 -0.0041,-5.074e-4 -0.0412,-0.017324 -0.08252,-0.03737 z"
     id="path3778" />
  <path
     style="fill:#5b8fb9;stroke:#5b8fb9;stroke-width:0.0107335"
     d="m 5.7423971,12.390796 c 0,-0.0111 0.1598148,-0.302814 0.2876051,-0.524964 0.3506848,-0.60963 0.7941093,-1.265105 1.251343,-1.849749 C 7.3706125,9.9019404 7.5029527,9.7328885 7.5754344,9.6404117 8.0198908,9.0733461 8.3094632,8.5788134 8.5097863,8.0447227 8.6469883,7.6789219 8.7640473,7.1906616 8.8060169,6.8091257 8.849109,6.4173844 8.85117,6.024081 8.81605,4.8944544 8.7956924,4.2396561 8.8007433,3.4212604 8.8266643,3.1746389 8.8460909,2.989808 8.8645688,2.84675 8.8724454,2.8201983 c 0.0053,-0.017868 0.1780513,-0.018666 3.4849236,-0.0161 l 3.479347,0.0027 0.01316,0.059323 c 0.02449,0.1103803 0.06641,0.3477737 0.08809,0.4988168 0.06442,0.4488619 0.08759,0.9120234 0.108173,2.1627907 0.01792,1.0885517 0.0265,1.2147728 0.10254,1.5080501 0.121896,0.470141 0.338842,0.9255486 0.69508,1.4590947 0.193413,0.289678 0.28451,0.4109235 0.907752,1.2081683 0.487261,0.6233001 0.971346,1.3010051 1.265039,1.7710201 0.169003,0.270466 0.456156,0.787824 0.49596,0.89356 l 0.01111,0.02952 h -0.911502 -0.911503 l -0.07242,-0.146754 c -0.249717,-0.506042 -0.650232,-1.082399 -1.01109,-1.454997 -0.137186,-0.14165 -0.202106,-0.190736 -0.252265,-0.190736 -0.03716,0 -0.03925,0.0019 -0.03916,0.03488 1.86e-4,0.06442 0.06695,0.157972 0.306119,0.428963 0.258488,0.292873 0.473567,0.613542 0.656925,0.979435 0.07096,0.141603 0.153134,0.324222 0.153134,0.340322 0,0.0049 -0.26214,0.0089 -0.582535,0.0089 H 16.276788 L 15.974285,11.761181 C 15.618387,11.012969 15.468782,10.687286 15.292813,10.27764 14.934749,9.4440879 14.635171,8.6090524 14.324223,7.5778175 c -0.03293,-0.1092128 -0.06211,-0.2047753 -0.06484,-0.212361 -0.0099,-0.027462 -0.09306,0.028658 -0.24139,0.1628867 -0.174396,0.1578181 -0.364185,0.2814355 -0.5705,0.37159 -0.07295,0.031879 -0.37656,0.1789287 -0.674681,0.3267779 -0.542161,0.2688769 -0.675849,0.3270844 -0.861558,0.37512 -0.190226,0.049204 -0.303356,0.06378 -0.496224,0.063937 C 11.1358,8.6659946 10.934557,8.6202691 10.759118,8.5167349 10.64601,8.4499867 10.425775,8.2921284 10.231717,8.1387108 9.7624339,7.7677075 9.6887488,7.713481 9.636839,7.7009265 9.5962135,7.6911011 9.5898966,7.7083634 9.5637805,7.9005754 9.4541744,8.7072661 9.2550775,9.409043 8.8438231,10.438283 8.6630529,10.890693 8.5242053,11.212296 8.0838437,12.198569 l -0.086263,0.193202 -0.4728512,0.0028 c -0.2600682,0.0015 -0.4728512,5.45e-4 -0.4728512,-0.0022 0,-0.01144 0.167844,-0.37282 0.2844273,-0.612396 C 7.4893043,11.465567 7.5980513,11.226416 7.63554,11.121912 7.664075,11.042372 7.672443,10.9696 7.653056,10.9696 c -0.042076,0 -0.3471035,0.529936 -0.6454705,1.121401 l -0.154276,0.305828 -0.5554562,1.6e-4 c -0.3055009,8.8e-5 -0.5554562,-0.0027 -0.5554562,-0.0062 z M 11.609048,8.3388745 c 0.301648,-0.030234 0.676546,-0.1769879 1.040326,-0.4072362 0.202426,-0.1281222 0.291381,-0.1789927 0.584973,-0.3345287 0.381628,-0.2021742 0.555229,-0.3192251 0.744547,-0.5020123 0.201987,-0.1950194 0.24215,-0.2776776 0.250938,-0.5164518 0.0046,-0.1256103 0.0027,-0.1515216 -0.01397,-0.1866199 C 14.168439,6.2920942 13.795542,6.0713189 13.416816,5.9189475 13.223822,5.8413012 12.761497,5.6107116 12.572129,5.4976506 12.335205,5.3561962 12.30888,5.3275238 12.410555,5.3216701 l 0.05635,-0.00324 0.0027,-0.059034 c 0.01335,-0.2966418 0.04101,-0.4550497 0.108282,-0.6200953 0.07883,-0.1934124 0.208044,-0.3621613 0.318812,-0.4163549 0.04991,-0.024421 0.06903,-0.027981 0.130984,-0.024393 0.212466,0.012304 0.390064,0.226336 0.477627,0.5756119 0.0314,0.1252363 0.0343,0.3998208 0.0054,0.5066984 -0.02749,0.1015101 -0.08399,0.2096996 -0.153308,0.2935336 -0.0337,0.040755 -0.05668,0.077591 -0.05158,0.082686 0.01272,0.01272 0.397648,0.1870601 0.459008,0.2078923 0.08216,0.027893 0.121625,0.022847 0.162802,-0.020814 0.05533,-0.058663 0.191947,-0.3451326 0.229513,-0.4812473 0.05311,-0.1924231 0.06838,-0.3278013 0.06133,-0.543589 -0.0069,-0.2122408 -0.02755,-0.329732 -0.08883,-0.5061743 -0.08312,-0.2393367 -0.221758,-0.4552647 -0.39842,-0.620551 -0.200468,-0.18756 -0.36172,-0.2618475 -0.598768,-0.2758483 -0.261417,-0.01544 -0.562042,0.070321 -0.752506,0.2146722 -0.280568,0.2126404 -0.451162,0.5702014 -0.49723,1.0421806 -0.0159,0.1629299 -0.01395,0.3882908 0.0038,0.4380015 0.01108,0.031042 0.0114,0.042448 0.0014,0.050734 -0.01844,0.015301 -0.117409,0.021784 -0.494288,0.032381 -0.358071,0.010068 -0.388455,0.014397 -0.538011,0.076658 -0.151488,0.063065 -0.361723,0.2046689 -0.524636,0.353371 C 10.196464,5.7474648 9.9923123,5.9151732 9.805009,6.0567687 9.5706524,6.233935 9.4310035,6.3495809 9.3527375,6.4313035 c -0.057458,0.059995 -0.067554,0.0769 -0.079076,0.1324047 -0.018859,0.090844 -0.00855,0.2818155 0.020027,0.3708764 0.06749,0.2103579 0.2980642,0.4263983 1.0206755,0.9563388 0.319764,0.2345051 0.431671,0.3103737 0.532169,0.3607877 0.08282,0.041545 0.193919,0.074868 0.289425,0.086807 0.109568,0.013697 0.338268,0.01387 0.47309,3.564e-4 z M 9.8568781,5.8738819 C 9.9354151,5.8206659 10.003578,5.7563445 10.003578,5.735451 10.003578,5.726201 9.983831,5.693835 9.959696,5.663523 9.8599605,5.5382608 9.7907282,5.3371028 9.7665247,5.1022547 9.7512665,4.9542034 9.7629494,4.8064766 9.7991973,4.6891194 9.8259937,4.6023627 9.9186965,4.4616292 9.9796885,4.415113 c 0.05895,-0.044959 0.1035685,-0.05304 0.1762245,-0.031919 0.182451,0.05304 0.325809,0.3426786 0.370665,0.7488853 l 0.01735,0.1571242 0.08135,-0.035073 c 0.196673,-0.084799 0.382576,-0.1688468 0.390623,-0.1766037 0.01134,-0.010927 -0.02087,-0.4577064 -0.0417,-0.5785154 C 10.936753,4.2818688 10.870244,4.0906493 10.778276,3.9357198 10.509702,3.4832781 10.122402,3.3364338 9.7865498,3.5597078 9.6447437,3.6539803 9.5026649,3.8445304 9.4093625,4.0655755 c -0.084559,0.2003303 -0.084779,0.2017828 -0.090063,0.5925718 -0.00518,0.3830569 0.00384,0.5180176 0.045599,0.6826512 0.042812,0.1687692 0.1677164,0.389313 0.2958322,0.52235 0.064966,0.067462 0.1088814,0.069865 0.1961474,0.010733 z"
     id="path3780" />
  <path
     style="fill:#5b8fb9;stroke:#5b8fb9;stroke-width:0.0107335"
     d=""
     id="path3782" />
  <path
     style="fill:#5b8fb9;stroke:#5b8fb9;stroke-width:0.0107335"
     d=""
     id="path3786" />
  <path
     style="fill:#5b8fb9;stroke:#5b8fb9;stroke-width:0.0107335"
     d=""
     id="path3788" />
  <path
     style="fill:#5b8fb9;stroke:#5b8fb9;stroke-width:0.00390625"
     d="m 13.167969,5.8305812 c -0.210682,-0.085105 -0.333158,-0.1475276 -0.481301,-0.2453063 -0.03617,-0.023876 -0.06497,-0.044213 -0.06399,-0.045193 9.8e-4,-9.798e-4 0.02344,0.01047 0.0499,0.025443 0.13041,0.073778 0.361693,0.1922273 0.505153,0.2587082 0.04297,0.019912 0.07886,0.036844 0.07975,0.037626 0.0071,0.00621 -0.0212,-0.00368 -0.08952,-0.031278 z"
     id="path3790" />
  <path
     style="fill:#5b8fb9;stroke:#5b8fb9;stroke-width:0.00390625"
     d="m 8.7890625,7.5350098 c 0,-0.5909715 3.298e-4,-0.6200384 0.00772,-0.6806641 0.018053,-0.148049 0.028754,-0.2953624 0.035671,-0.4910645 0.00499,-0.141215 0.00262,-0.6625701 -0.00414,-0.9121093 -0.01118,-0.4124221 -0.019676,-0.7113493 -0.021288,-0.7490235 l -0.0018,-0.041992 h 0.2591967 0.2591966 l -0.00212,0.094727 c -0.00381,0.1699272 0.00674,0.3775371 0.024453,0.4814453 0.031871,0.1869512 0.1108115,0.3595735 0.2473173,0.5408151 0.060058,0.079741 0.103814,0.1209558 0.1393918,0.1312985 0.019173,0.00557 0.023232,0.00556 0.045428,-1.238e-4 0.013406,-0.00343 0.034981,-0.012179 0.047945,-0.019433 0.059257,-0.033156 0.1665008,-0.1253137 0.1721854,-0.147963 0.00309,-0.012312 -0.0036,-0.023974 -0.045416,-0.079132 C 9.8389263,5.5115632 9.7725478,5.3006971 9.7577694,5.0422084 9.750403,4.9133619 9.7665208,4.7674577 9.7980324,4.6777344 l 0.00549,-0.015625 0.3053096,-0.001 0.30531,-0.001 0.0099,0.022485 c 0.01794,0.040547 0.05205,0.1447079 0.06593,0.2013285 0.0202,0.082374 0.02829,0.1330481 0.04315,0.2703608 0.0074,0.068252 0.01439,0.1250503 0.01556,0.1262183 0.0012,0.00117 0.01837,-0.00511 0.03822,-0.013953 0.01985,-0.00884 0.11432,-0.050657 0.209925,-0.092922 0.09561,-0.042264 0.184182,-0.082071 0.196837,-0.088458 l 0.02301,-0.011614 -0.0026,-0.061191 c -0.0042,-0.097158 -0.01937,-0.314739 -0.02382,-0.3414643 l -0.0018,-0.010742 h 0.449686 0.449685 l -0.0025,0.026367 c -0.0069,0.073294 -0.01106,0.202868 -0.0089,0.2783203 0.0026,0.090387 0.0065,0.1267382 0.01641,0.1531473 0.0093,0.024911 0.0109,0.037648 0.0055,0.044155 -0.0042,0.00505 -0.0029,0.00502 0.0096,-2.257e-4 0.0101,-0.00422 0.01999,-0.00526 0.03271,-0.00344 0.02552,0.00366 0.121783,0.033025 0.268225,0.081824 0.126249,0.04207 0.184083,0.065082 0.180033,0.071634 -0.0033,0.0053 0.0078,0.00668 0.04165,0.00519 0.02738,-0.00121 0.03045,-0.00215 0.03209,-0.00982 9.94e-4,-0.00466 0.0046,-0.06473 0.0079,-0.1334803 0.01093,-0.2229304 0.02485,-0.3083639 0.07495,-0.459961 l 0.01775,-0.053711 h 0.457697 0.457696 l 0.01456,0.051758 c 0.03475,0.1235261 0.04752,0.227114 0.04443,0.3603515 -0.0026,0.112188 -0.01219,0.1771934 -0.03806,0.2581646 -0.02795,0.087449 -0.06258,0.1514659 -0.121329,0.2242573 -0.03796,0.047033 -0.0698,0.091764 -0.0698,0.098066 0,0.00913 0.410369,0.1943431 0.474609,0.214207 0.03479,0.010756 0.06976,0.014044 0.09026,0.00849 0.04249,-0.011524 0.0793,-0.060284 0.147759,-0.1957581 0.09095,-0.1799687 0.134602,-0.300708 0.165954,-0.4589844 0.02255,-0.1138529 0.0256,-0.1504613 0.02566,-0.3085937 3.9e-5,-0.079492 -0.0014,-0.1687012 -0.0032,-0.1982422 l -0.0032,-0.053711 h 0.91206 0.912059 l 0.0023,0.036133 c 0.0012,0.019873 0.004,0.1161132 0.0062,0.2138671 0.0022,0.097754 0.0049,0.219043 0.006,0.2695313 0.0011,0.050488 0.0038,0.2148437 0.0059,0.3652344 0.01404,0.9958142 0.02665,1.192527 0.09349,1.4583655 0.08216,0.3267763 0.208724,0.6439928 0.389249,0.9755697 l 0.04059,0.07456 v 0.049463 0.049463 H 15.53577 14.49732 l -0.0079,-0.026367 c -0.0044,-0.014502 -0.03273,-0.1054688 -0.06307,-0.2021485 -0.03033,-0.09668 -0.08124,-0.261914 -0.113118,-0.3671875 -0.06632,-0.2190042 -0.05839,-0.204811 -0.100327,-0.1795496 -0.04203,0.025314 -0.09348,0.066896 -0.195209,0.1577588 -0.107419,0.095945 -0.206723,0.1708497 -0.319976,0.2413559 -0.06881,0.042839 -0.136613,0.07787 -0.235614,0.1217351 -0.07665,0.033962 -0.300665,0.1408685 -0.442179,0.2110219 l -0.08751,0.043381 H 12.584444 12.23647 l 0.08624,-0.042482 c 0.139907,-0.068916 0.227605,-0.118963 0.38433,-0.2193277 0.139087,-0.089069 0.257803,-0.1572939 0.441407,-0.2536693 0.245349,-0.128787 0.300751,-0.1592086 0.40245,-0.2209898 0.179773,-0.1092107 0.30249,-0.2036037 0.438828,-0.3375431 0.200966,-0.1974298 0.234615,-0.2758265 0.234812,-0.5470817 l 8.2e-5,-0.1113281 -0.01069,-0.022808 C 14.200811,6.3691223 14.164537,6.3320502 14.113281,6.2942575 13.9372,6.1644256 13.695282,6.0360841 13.400391,5.9160563 13.205008,5.836531 13.029664,5.7526959 12.785156,5.6219008 12.587221,5.516019 12.429667,5.4213767 12.3761,5.3761808 l -0.02038,-0.017199 -0.0025,0.00996 c -0.0014,0.00548 -0.0049,0.00996 -0.0079,0.00996 -0.003,0 -0.02606,-0.00981 -0.05134,-0.02179 -0.0688,-0.032626 -0.133493,-0.057773 -0.235403,-0.091507 -0.08384,-0.027751 -0.12426,-0.039102 -0.20088,-0.056404 -0.02737,-0.00618 -0.04317,-0.015524 -0.03865,-0.022851 0.0017,-0.00269 -0.0083,-0.00319 -0.03036,-0.00151 -0.03125,0.00238 -0.121767,0.00545 -0.425421,0.014408 -0.241562,0.00713 -0.316332,0.013525 -0.389315,0.033296 -0.177295,0.048031 -0.435438,0.2076634 -0.641935,0.3969641 -0.150057,0.1375611 -0.320628,0.2771093 -0.5624997,0.4601936 -0.2943147,0.222781 -0.4495736,0.3609266 -0.4764819,0.4239621 -0.018582,0.04353 -0.02157,0.068808 -0.02147,0.1816406 1.032e-4,0.1169091 0.00504,0.1649852 0.02349,0.2286449 0.049488,0.1707726 0.2113012,0.3440498 0.6135057,0.6569704 0.1746559,0.1358844 0.5707329,0.4282705 0.7187869,0.5306121 0.0298,0.020601 0.05494,0.03821 0.05586,0.03913 9.21e-4,9.203e-4 -0.09838,0.00165 -0.220657,0.00162 L 10.240234,8.152232 10.15625,8.0854031 C 9.7510092,7.7629407 9.6672314,7.703125 9.6208322,7.703125 c -0.010346,0 -0.012911,0.00229 -0.019682,0.0176 -0.011377,0.025719 -0.016707,0.056708 -0.042665,0.2480253 -0.00746,0.055016 -0.019913,0.1387157 -0.025418,0.1708984 l -0.00217,0.012695 H 9.1599792 8.7890625 Z"
     id="path3792" />
  <path
     style="fill:#5b8fb9;stroke:#5b8fb9;stroke-width:0.00390625"
     d=""
     id="path3794" />
  <path
     style="fill:#5b8fb9;stroke:#5b8fb9;stroke-width:0.0220971"
     d="M 11.063139,7.7537328 C 10.650043,7.6991022 10.18166,7.4589276 9.7786883,7.0950996 9.5602183,6.8978516 9.5257841,6.8505958 9.5246275,6.7464399 9.5235052,6.645379 9.558573,6.6375918 9.6365623,6.7215834 c 0.3808307,0.4101409 0.6340297,0.6094412 0.9789247,0.7705392 0.285431,0.1333234 0.421025,0.1601355 0.742416,0.1468042 0.304636,-0.012636 0.420178,-0.040376 0.802578,-0.1926891 0.304683,-0.1213572 0.49279,-0.2292714 0.846277,-0.4854964 0.321427,-0.2329862 0.412094,-0.3118804 0.47502,-0.4133385 0.04767,-0.076856 0.121162,-0.1127581 0.157151,-0.076769 0.03153,0.031533 -0.04515,0.1500635 -0.176665,0.273082 -0.254353,0.2379176 -1.024794,0.6844154 -1.514215,0.8775415 -0.314206,0.1239863 -0.611998,0.1685672 -0.88491,0.1324755 z"
     id="path3796" />
  <path
     style="fill:#5b8fb9;stroke:#5b8fb9;stroke-width:0.0078125"
     d="M 8.7978346,4.970719 C 8.7770905,4.5795068 8.7733606,4.4509658 8.7731807,4.1210937 8.7730279,3.8407939 8.7842575,3.4486879 8.7927074,3.43928 c 0.00105,-0.00117 2.101e-4,0.172854 -0.00187,0.3867187 -0.00261,0.2684135 3.896e-4,0.5323855 0.00968,0.8523034 0.0074,0.254902 0.011943,0.4649678 0.010098,0.4668127 -0.00184,0.00185 -0.0076,-0.076633 -0.012781,-0.1743958 z"
     id="path3798" />
  <path
     style="fill:#5b8fb9;stroke:#5b8fb9;stroke-width:0.0078125"
     d="m 7.4609375,9.7850267 c 0,-0.00226 0.033524,-0.046304 0.074497,-0.097877 C 8.0810879,9.0003376 8.430348,8.3621051 8.6168779,7.7109375 8.7325928,7.3069815 8.7863605,7.0170831 8.8219102,6.6054687 8.8340402,6.4650207 8.8337309,5.4762054 8.8214664,5.1875 8.8171769,5.0865234 8.8132383,4.9494141 8.8127138,4.8828125 8.8116773,4.751183 8.7997447,4.6408836 8.7978526,4.7454427 c -0.00165,0.091312 -0.00694,0.054213 -0.012718,-0.089193 -0.00648,-0.1609752 -0.00688,-1.0152364 -4.718e-4,-1.0216423 0.00242,-0.00242 0.00505,0.1535108 0.00585,0.3465121 l 0.00145,0.3509114 0.00537,-0.4296875 c 0.00296,-0.2363281 0.00944,-0.4894531 0.014406,-0.5625 0.00963,-0.1416645 0.03549,-0.3864064 0.050345,-0.4765625 l 0.00901,-0.054687 3.4277342,-0.00196 3.427734,-0.00196 V 6.2969569 9.78924 L 15.405281,9.787196 15.084,9.7851562 15.029872,9.6484375 C 14.82151,9.1221512 14.596702,8.47172 14.368314,7.734375 14.264701,7.399862 14.251857,7.3635508 14.238013,7.3660158 14.214593,7.3701862 14.152849,7.4166591 14.039245,7.515625 13.825691,7.7016621 13.682226,7.7970068 13.46875,7.8947688 13.287349,7.9778417 13.13888,8.0497324 12.755809,8.239983 12.304753,8.463998 12.203492,8.510509 12.058594,8.5602242 11.611804,8.7135199 11.120612,8.7070187 10.798001,8.5435394 10.683236,8.4853837 10.426911,8.2979687 9.9657641,7.9350407 9.8435281,7.8388395 9.7102003,7.7413559 9.6759692,7.7231551 9.6300478,7.6987384 9.6126774,7.6979816 9.6009541,7.7198868 9.5960202,7.7291058 9.5786281,7.8266644 9.5623049,7.9366837 9.4798182,8.4926483 9.3962852,8.856358 9.2301733,9.3828125 9.1983123,9.4837891 9.1549627,9.615625 9.1338409,9.6757812 l -0.038403,0.109375 -0.81725,0.00199 C 7.8287001,9.7882394 7.4609375,9.787286 7.4609375,9.7850267 Z M 11.615542,8.3354152 c 0.320342,-0.035194 0.660955,-0.1737676 1.089307,-0.4431678 0.160496,-0.1009401 0.262402,-0.1587543 0.532292,-0.3019855 0.289234,-0.1534975 0.411963,-0.2288317 0.567546,-0.348376 0.09251,-0.071077 0.299536,-0.277441 0.338865,-0.3377743 0.05923,-0.09086 0.08301,-0.1993716 0.08301,-0.3787669 0,-0.065603 -0.0035,-0.1046354 -0.01114,-0.1228341 C 14.198724,6.3625598 14.140074,6.310375 14.03125,6.2386468 13.836557,6.1103203 13.698232,6.0406786 13.332031,5.8866142 13.07044,5.7765601 12.627761,5.5450109 12.443359,5.4217822 c -0.05049,-0.03374 -0.0918,-0.058068 -0.0918,-0.054063 0,0.012808 -0.01858,0.00795 -0.07742,-0.020252 -0.07222,-0.034612 -0.305127,-0.114376 -0.385959,-0.1321813 -0.03742,-0.00824 -0.06278,-0.017988 -0.06554,-0.025187 -0.0032,-0.00838 -0.01146,-0.010509 -0.0288,-0.00744 -0.01337,0.00237 -0.103401,0.00636 -0.200081,0.00886 -0.469514,0.012177 -0.57702,0.021854 -0.681776,0.061369 -0.19157,0.072263 -0.377412,0.19662 -0.634483,0.4245679 C 10.14542,5.7945728 9.9857347,5.9242046 9.7754514,6.0850177 9.4686787,6.3196208 9.3241632,6.4482097 9.2961802,6.51147 c -0.032893,0.074359 -0.037899,0.2407785 -0.011187,0.3718971 0.04357,0.2138713 0.2386774,0.4122211 0.8673508,0.8817654 0.616677,0.4605847 0.737813,0.5323132 0.957031,0.5666905 0.08226,0.012899 0.400873,0.01516 0.506167,0.00359 z M 9.8085937,5.8956193 C 9.8773944,5.8634041 10.000193,5.7600505 9.9998262,5.7346687 9.9997309,5.7280619 9.9925551,5.7138672 9.9838805,5.703125 9.8279905,5.5100802 9.7484058,5.2335116 9.7601938,4.9257812 9.7668493,4.7520374 9.7937028,4.6578679 9.870403,4.5393016 9.91634,4.4682906 9.962935,4.4181287 10.006888,4.3923709 c 0.04902,-0.028728 0.119581,-0.02876 0.18198,-8.36e-5 0.16555,0.07608 0.295481,0.3514397 0.338367,0.717088 0.01918,0.1634942 0.02036,0.171875 0.02425,0.171875 0.0054,0 0.442736,-0.1945276 0.456097,-0.2028905 0.01008,-0.00631 0.0098,-0.032723 -0.0023,-0.2166025 C 10.983508,4.5319814 10.961525,4.3977365 10.898308,4.20866 10.83922,4.031932 10.745148,3.8662658 10.626774,3.7304687 10.40351,3.474346 10.116182,3.3948096 9.8630604,3.5190627 9.7158684,3.5913167 9.5801932,3.7385159 9.4701809,3.9453125 9.4229019,4.0341855 9.3654928,4.1728591 9.3481446,4.2400952 c -0.018004,0.069778 -0.027486,0.2447853 -0.027671,0.5107234 -2.398e-4,0.3444314 0.01752,0.5089711 0.071418,0.6616798 0.079371,0.2248804 0.279098,0.5018801 0.3615912,0.5014878 0.00883,-3.91e-5 0.033627,-0.00831 0.055111,-0.018367 z m 4.0791723,-0.028939 c 0.04118,-0.019934 0.08432,-0.083968 0.154944,-0.2299619 0.08356,-0.1727433 0.127115,-0.3067515 0.157543,-0.4847105 0.01614,-0.09441 0.01836,-0.3965105 0.0038,-0.5113832 C 14.168857,4.3640714 14.054102,4.0849239 13.88534,3.8654308 13.754596,3.695385 13.556591,3.5350109 13.405405,3.4767074 c -0.206129,-0.079492 -0.468621,-0.077794 -0.724676,0.00469 -0.335,0.1079103 -0.578707,0.3702689 -0.707478,0.7616227 -0.06569,0.19964 -0.09323,0.3907519 -0.0939,0.6515151 -4.94e-4,0.1923725 0.01043,0.2733334 0.03579,0.2652847 0.01834,-0.00582 0.07509,0.00973 0.272365,0.074631 0.09238,0.030393 0.177494,0.062146 0.189137,0.070563 0.03008,0.021742 0.07477,0.020528 0.08372,-0.00228 0.0038,-0.00967 0.01059,-0.087891 0.01512,-0.1738282 0.0086,-0.1637117 0.02048,-0.2437064 0.05301,-0.357513 0.07312,-0.2558137 0.229553,-0.4860092 0.377616,-0.5556753 0.08928,-0.042007 0.194051,-0.029142 0.293947,0.036093 0.268528,0.1753571 0.416595,0.7190414 0.295251,1.0841265 -0.03091,0.092995 -0.0669,0.1574452 -0.135263,0.2421875 -0.026,0.032227 -0.04733,0.062944 -0.0474,0.068261 -3.05e-4,0.022345 0.435423,0.2176256 0.515493,0.231029 0.01074,0.0018 0.02106,0.00375 0.02292,0.00433 0.0019,5.851e-4 0.01839,-0.0062 0.03672,-0.015068 z M 8.8005416,4.4232736 c -0.00949,-0.1195049 -0.013399,-0.058686 -0.00654,0.1017354 0.00669,0.1563734 0.00681,0.157223 0.00924,0.060929 0.00135,-0.053711 1.382e-4,-0.1269097 -0.0027,-0.1626644 z"
     id="path3800" />
  <path
     style="fill:#5b8fb9;stroke:#5b8fb9;stroke-width:0.0078125"
     d=""
     id="path3802" />
  <path
     style="fill:#5b8fb9;stroke:#5b8fb9;stroke-width:0.0078125"
     d=""
     id="path3804" />
  <path
     style="fill:#5b8fb9;stroke:#5b8fb9;stroke-width:0.0078125"
     d="m 10.418123,4.6538356 c -0.0078,-0.020525 -0.02963,-0.062267 -0.04843,-0.092759 -0.0188,-0.030492 -0.03267,-0.056955 -0.03081,-0.058807 0.01101,-0.011008 0.102953,0.1605255 0.09647,0.1799741 -0.0016,0.0049 -0.0094,-0.00788 -0.01722,-0.028408 z"
     id="path3806" />
  <path
     style="fill:#5b8fb9;stroke:#5b8fb9;stroke-width:0.0078125"
     d=""
     id="path3808" />
  <path
     style="fill:#5b8fb9;stroke:#5b8fb9;stroke-width:0.00390625"
     d="m 10.32288,4.4945306 c -0.01275,-0.019457 -0.0554,-0.062006 -0.07913,-0.078938 -0.03854,-0.027502 -0.09756,-0.048377 -0.151955,-0.053746 -0.0086,-8.483e-4 0.002,-9.153e-4 0.02344,-1.49e-4 0.02149,7.663e-4 0.04873,0.00403 0.06055,0.00724 0.05227,0.014236 0.09972,0.04722 0.14621,0.1016406 0.01677,0.019625 0.01828,0.022851 0.01314,0.027987 -0.0051,0.00514 -0.0065,0.00467 -0.01226,-0.00404 z"
     id="path3810" />
  <path
     style="fill:#5b8fb9;stroke:#5b8fb9;stroke-width:0.00390625"
     d="m 10.520122,5.0117187 c -0.0032,-0.047017 -0.04654,-0.2135372 -0.07401,-0.2841796 -0.01298,-0.033372 -0.0145,-0.040033 -0.0092,-0.040005 0.0067,3.56e-5 0.02347,0.047953 0.0554,0.158169 0.01635,0.056438 0.03242,0.1438382 0.03,0.1632127 -0.0012,0.00978 -0.0017,0.0104 -0.0022,0.0028 z"
     id="path3814" />
</svg>
