<?xml version="1.0" encoding="UTF-8" standalone="no"?>
<svg
   role="img"
   viewBox="0 0 24 24"
   version="1.1"
   id="svg4572"
   sodipodi:docname="npm.svg"
   inkscape:version="1.2.2 (b0a8486541, 2022-12-01)"
   xmlns:inkscape="http://www.inkscape.org/namespaces/inkscape"
   xmlns:sodipodi="http://sodipodi.sourceforge.net/DTD/sodipodi-0.dtd"
   xmlns="http://www.w3.org/2000/svg"
   xmlns:svg="http://www.w3.org/2000/svg">
  <defs
     id="defs4576" />
  <sodipodi:namedview
     id="namedview4574"
     pagecolor="#ffffff"
     bordercolor="#999999"
     borderopacity="1"
     inkscape:showpageshadow="0"
     inkscape:pageopacity="0"
     inkscape:pagecheckerboard="0"
     inkscape:deskcolor="#d1d1d1"
     showgrid="false"
     inkscape:zoom="23.291667"
     inkscape:cx="12"
     inkscape:cy="12.042934"
     inkscape:window-width="1366"
     inkscape:window-height="748"
     inkscape:window-x="0"
     inkscape:window-y="20"
     inkscape:window-maximized="1"
     inkscape:current-layer="svg4572" />
  <title
     id="title4568">npm</title>
  <path
     d="M1.763 0C.786 0 0 .786 0 1.763v20.474C0 23.214.786 24 1.763 24h20.474c.977 0 1.763-.786 1.763-1.763V1.763C24 .786 23.214 0 22.237 0zM5.13 5.323l13.837.019-.009 13.836h-3.464l.01-10.382h-3.456L12.04 19.17H5.113z"
     id="path4570" />
  <path
     style="fill:#5b8fb9;stroke:#5b8fb9;stroke-width:0.105;stroke-dasharray:none"
     d="M 1.503826,23.952177 C 0.94772831,23.871184 0.46784896,23.511796 0.20461758,22.979183 L 0.04293381,22.652038 V 12 1.3479617 L 0.20461758,1.0208168 C 0.47599853,0.47171481 0.94484711,0.13041027 1.5456172,0.04461847 c 0.4121983,-0.05886318 20.4965668,-0.05886318 20.9087658,0 0.60077,0.0857918 1.069618,0.42709634 1.341,0.97619833 l 0.161683,0.3271449 V 12 22.652038 l -0.161683,0.327145 c -0.271382,0.549102 -0.74023,0.890407 -1.341,0.976198 -0.376903,0.05382 -20.580226,0.05073 -20.950557,-0.0032 z m 10.553483,-7.948599 c 0.01567,-1.75331 0.02851,-4.091056 0.02853,-5.194991 l 3.2e-5,-2.0071559 h 1.695885 1.695886 v 5.1949909 5.194991 h 1.760286 1.760286 v -6.93381 -6.9338105 h -6.95528 -6.9552775 v 6.9338105 6.93381 h 3.4705786 3.4705779 z"
     id="path5058" />
</svg>
