<?xml version="1.0" encoding="UTF-8" standalone="no"?>
<svg
   role="img"
   viewBox="0 0 24 24"
   version="1.1"
   id="svg6"
   sodipodi:docname="python.svg"
   inkscape:version="1.2.2 (b0a8486541, 2022-12-01)"
   xmlns:inkscape="http://www.inkscape.org/namespaces/inkscape"
   xmlns:sodipodi="http://sodipodi.sourceforge.net/DTD/sodipodi-0.dtd"
   xmlns="http://www.w3.org/2000/svg"
   xmlns:svg="http://www.w3.org/2000/svg">
  <defs
     id="defs10" />
  <sodipodi:namedview
     id="namedview8"
     pagecolor="#ffffff"
     bordercolor="#999999"
     borderopacity="1"
     inkscape:showpageshadow="0"
     inkscape:pageopacity="0"
     inkscape:pagecheckerboard="0"
     inkscape:deskcolor="#d1d1d1"
     showgrid="false"
     inkscape:zoom="20.277954"
     inkscape:cx="13.364267"
     inkscape:cy="12.451947"
     inkscape:window-width="1366"
     inkscape:window-height="748"
     inkscape:window-x="0"
     inkscape:window-y="20"
     inkscape:window-maximized="1"
     inkscape:current-layer="svg6" />
  <title
     id="title2">Python</title>
  <path
     d="M14.25.18l.9.2.73.26.59.3.45.32.34.34.25.34.16.33.1.3.04.26.02.2-.01.13V8.5l-.05.63-.13.55-.21.46-.26.38-.3.31-.33.25-.35.19-.35.14-.33.1-.3.07-.26.04-.21.02H8.77l-.69.05-.59.14-.5.22-.41.27-.33.32-.27.35-.2.36-.15.37-.1.35-.07.32-.04.27-.02.21v3.06H3.17l-.21-.03-.28-.07-.32-.12-.35-.18-.36-.26-.36-.36-.35-.46-.32-.59-.28-.73-.21-.88-.14-1.05-.05-1.23.06-1.22.16-1.04.24-.87.32-.71.36-.57.4-.44.42-.33.42-.24.4-.16.36-.1.32-.05.24-.01h.16l.06.01h8.16v-.83H6.18l-.01-2.75-.02-.37.05-.34.11-.31.17-.28.25-.26.31-.23.38-.2.44-.18.51-.15.58-.12.64-.1.71-.06.77-.04.84-.02 1.27.05zm-6.3 1.98l-.23.33-.08.41.08.41.23.34.33.22.41.09.41-.09.33-.22.23-.34.08-.41-.08-.41-.23-.33-.33-.22-.41-.09-.41.09zm13.09 3.95l.28.06.32.12.35.18.36.27.36.35.35.47.32.59.28.73.21.88.14 1.04.05 1.23-.06 1.23-.16 1.04-.24.86-.32.71-.36.57-.4.45-.42.33-.42.24-.4.16-.36.09-.32.05-.24.02-.16-.01h-8.22v.82h5.84l.01 2.76.02.36-.05.34-.11.31-.17.29-.25.25-.31.24-.38.2-.44.17-.51.15-.58.13-.64.09-.71.07-.77.04-.84.01-1.27-.04-1.07-.14-.9-.2-.73-.25-.59-.3-.45-.33-.34-.34-.25-.34-.16-.33-.1-.3-.04-.25-.02-.2.01-.13v-5.34l.05-.64.13-.54.21-.46.26-.38.3-.32.33-.24.35-.2.35-.14.33-.1.3-.06.26-.04.21-.02.13-.01h5.84l.69-.05.59-.14.5-.21.41-.28.33-.32.27-.35.2-.36.15-.36.1-.35.07-.32.04-.28.02-.21V6.07h2.09l.14.01zm-6.47 14.25l-.23.33-.08.41.08.41.23.33.33.23.41.08.41-.08.33-.23.23-.33.08-.41-.08-.41-.23-.33-.33-.23-.41-.08-.41.08z"
     id="path4" />
  <path
     style="fill:#5b8fb9;stroke:#5b8fb9;stroke-width:0.0493146;fill-opacity:1;stroke-opacity:1"
     d="M 2.699116,17.797762 C 1.2746668,17.346512 0.38326978,15.936568 0.06764261,13.635498 -0.03403222,12.894241 -0.0196585,10.971372 0.09270971,10.282102 0.45538608,8.0574352 1.408896,6.7580073 2.9720176,6.3582283 3.3263331,6.2676097 3.5571594,6.2629593 7.7009722,6.2629593 H 12.05743 V 5.8191275 5.3752958 H 9.1232084 6.1889873 V 3.7251053 c 0,-1.569229 0.00522,-1.6641322 0.106319,-1.9343539 C 6.4598174,1.3510569 6.7980527,1.0274328 7.3966235,0.73701001 8.4115715,0.24456377 9.7057381,0.04604293 11.883371,0.04875808 c 2.422487,0.0030205 4.026354,0.41167047 5.074373,1.29290142 0.266003,0.2236699 0.581208,0.6863117 0.719596,1.0561848 0.100846,0.2695373 0.103179,0.3478451 0.101318,3.4015668 -0.0021,3.4840166 -0.0074,3.5511358 -0.327893,4.2062639 -0.340399,0.695721 -0.963962,1.172724 -1.918489,1.467574 L 15.09028,11.60978 11.514968,11.63933 C 7.5501247,11.6721 7.7609186,11.65449 7.0273362,12.014335 6.285681,12.378142 5.7326568,13.135225 5.5009164,14.103983 5.4102514,14.482998 5.400611,14.684978 5.4002988,16.212184 l -3.457e-4,1.689026 -1.19588,-0.0028 C 3.1526696,17.896009 2.9708528,17.883846 2.699116,17.797762 Z M 9.1901979,3.830066 C 9.5219942,3.6651807 9.6981096,3.3837929 9.725605,2.9746208 9.7448752,2.6878612 9.7308171,2.6056498 9.6301531,2.4164174 9.4887532,2.1506065 9.1445765,1.9018075 8.853986,1.8553402 8.4607999,1.7924671 8.0183603,1.9948401 7.7790482,2.3470197 7.6735064,2.5023382 7.651846,2.5919222 7.6492831,2.883709 c -0.00268,0.305002 0.015494,0.3796033 0.1406656,0.5774577 0.1566662,0.2476358 0.3376238,0.3790101 0.6428548,0.4667086 0.2455129,0.07054 0.4794073,0.040336 0.7573944,-0.097809 z"
     id="path1140" />
  <path
     style="fill:#5b8fb9;fill-opacity:1;stroke:#5b8fb9;stroke-width:0.0493146;stroke-opacity:1"
     d="m 10.898535,23.938467 c -0.08137,-0.01103 -0.347668,-0.04353 -0.591775,-0.07222 C 8.2096524,23.619754 6.8045342,22.840746 6.3276802,21.660211 L 6.2136447,21.377897 v -3.205452 c 0,-2.957268 0.00699,-3.23027 0.090297,-3.525997 0.2479315,-0.880134 0.7697193,-1.521754 1.5202999,-1.869446 0.8184797,-0.379146 0.6393132,-0.363548 4.6030474,-0.400741 3.793509,-0.0356 3.708318,-0.0299 4.362257,-0.291691 0.577046,-0.231009 1.126401,-0.771533 1.430954,-1.40795 0.34848,-0.7282124 0.3621,-0.8276242 0.383407,-2.7986062 l 0.01906,-1.7629984 h 1.169847 c 0.877861,0 1.240335,0.01836 1.452265,0.073561 1.168203,0.3042782 2.099252,1.475488 2.491328,3.1339569 0.205301,0.8684207 0.269523,1.5021757 0.269644,2.6609247 1.97e-4,1.943558 -0.280612,3.147782 -0.985337,4.225452 -0.444279,0.679396 -0.9927,1.106363 -1.778111,1.384329 l -0.382508,0.135374 -4.450646,0.01383 -4.450647,0.01383 v 0.417671 0.417671 h 2.901864 2.901863 l 0.03452,1.569349 c 0.03682,1.674003 0.02163,1.856168 -0.189588,2.272982 -0.348349,0.687435 -1.437129,1.178139 -3.133613,1.412294 -0.536613,0.07407 -3.202117,0.14282 -3.575312,0.09222 z m 4.906356,-1.914439 c 0.411327,-0.202558 0.6393,-0.696489 0.536713,-1.162861 -0.05869,-0.26683 -0.230597,-0.503031 -0.491993,-0.676015 -0.162214,-0.107348 -0.250482,-0.128598 -0.534166,-0.128598 -0.286626,0 -0.373708,0.02143 -0.556128,0.136834 -0.814601,0.515355 -0.604728,1.730104 0.335366,1.941105 0.245993,0.05521 0.432764,0.02616 0.710208,-0.110465 z"
     id="path3629" />
</svg>
