<?xml version="1.0" encoding="UTF-8" standalone="no"?>
<!-- Created with Inkscape (http://www.inkscape.org/) -->

<svg
   width="210mm"
   height="297mm"
   viewBox="0 0 210 297"
   version="1.1"
   id="svg5"
   sodipodi:docname="signature.svg"
   inkscape:version="1.2.2 (b0a8486541, 2022-12-01)"
   xmlns:inkscape="http://www.inkscape.org/namespaces/inkscape"
   xmlns:sodipodi="http://sodipodi.sourceforge.net/DTD/sodipodi-0.dtd"
   xmlns="http://www.w3.org/2000/svg"
   xmlns:svg="http://www.w3.org/2000/svg">
  <sodipodi:namedview
     id="namedview7"
     pagecolor="#ffffff"
     bordercolor="#999999"
     borderopacity="1"
     inkscape:showpageshadow="0"
     inkscape:pageopacity="0"
     inkscape:pagecheckerboard="0"
     inkscape:deskcolor="#d1d1d1"
     inkscape:document-units="mm"
     showgrid="false"
     inkscape:zoom="0.49798681"
     inkscape:cx="143.5781"
     inkscape:cy="559.25176"
     inkscape:window-width="1366"
     inkscape:window-height="748"
     inkscape:window-x="0"
     inkscape:window-y="20"
     inkscape:window-maximized="1"
     inkscape:current-layer="layer1" />
  <defs
     id="defs2" />
  <g
     inkscape:label="Layer 1"
     inkscape:groupmode="layer"
     id="layer1">
    <path
       style="fill:#ffffff;stroke:#ffffff;stroke-width:3.4348;stroke-dasharray:none;stroke-opacity:1"
       id="path2075"
       d="m 56.141765,131.82017 c 2.03415,-0.60183 4.075103,-1.18681 6.102404,-1.80552 7.250399,-2.21271 18.744586,-5.83306 25.529641,-8.05359 10.805296,-3.53623 23.17003,-7.69423 33.74377,-11.67096 5.77638,-2.17247 11.45882,-4.52574 17.18821,-6.78862 13.51303,-5.770221 16.19811,-6.804297 28.92359,-12.635252 5.42247,-2.484635 16.08855,-7.365716 20.79572,-10.664142 0.9995,-0.700372 2.94257,-2.211777 1.92161,-2.888795 -1.80592,-1.19755 -4.54968,-0.241624 -6.82453,-0.362437 -33.09552,5.503811 -63.83434,17.942028 -93.403437,31.487306 -7.352666,3.36818 -14.56385,6.9606 -21.845749,10.4409 -14.958574,7.99259 -22.839724,11.74207 -36.525749,20.69696 -4.375482,2.86291 -8.699261,5.8117 -12.668832,9.08415 -4.682161,3.85986 -11.2491621,9.4288 -11.1915251,15.85435 0.020224,2.25631 1.9505484,4.18841 2.9258131,6.2826 2.593916,1.44008 4.849285,3.49205 7.781736,4.32024 9.356399,2.64245 19.46897,1.08593 28.747277,-0.47182 10.874727,-1.82575 22.214779,-4.92367 32.508236,-8.43406 4.692764,-1.60038 9.217894,-3.5438 13.826832,-5.3157 8.748358,-4.24765 15.583518,-7.17216 23.490448,-12.75163 2.38997,-1.68646 4.6473,-3.59454 6.35193,-5.81398 1.30356,-1.69724 2.88831,-3.70494 2.50082,-5.71238 -0.8827,-4.57299 -9.68061,-5.78823 -12.83095,-6.6992 -9.42379,-1.38632 -18.977787,-1.45464 -28.415826,-0.13985 -2.964802,0.41302 -9.377468,1.46636 -12.18135,3.29624 -2.101211,1.37129 -3.67328,3.25781 -5.509906,4.88671 1.523665,0.59986 2.924008,1.53543 4.571008,1.79953 5.93239,0.95128 14.24471,-0.0812 19.823879,-0.99631 8.793485,-1.44231 17.111675,-3.67999 25.555675,-6.1994 3.85928,-1.15146 7.64943,-2.46811 11.47416,-3.70214 3.15887,-1.10643 6.24504,-2.38149 9.47663,-3.31928 3.11064,-0.90268 7.80367,-2.62403 10.89964,-0.11876 1.16707,0.94441 1.68048,2.38284 2.14263,3.70338 1.04318,2.9809 1.06985,7.51891 1.24042,10.54723 0.27694,1.73701 0.043,3.59433 0.83081,5.21105 1.8638,3.82512 5.57333,5.43535 10.11332,6.13206 2.80498,0.43046 5.70377,0.36313 8.54491,0.17919 7.5418,-0.48823 12.8967,-2.10409 20.17914,-3.83099 3.37812,-0.93539 6.75251,-1.88079 10.13432,-2.80614 3.16884,-0.86707 6.30536,-1.83169 9.51751,-2.57112 6.55931,-1.50994 12.20174,-2.42267 18.99981,-2.57157 7.77617,-0.17034 12.12373,0.61269 19.83516,1.51043 3.53013,0.54423 7.06024,1.08845 10.59037,1.63266 0,0 3.40692,-2.0511 3.40692,-2.0511 v 0 c -3.4927,-0.57331 -6.98541,-1.14663 -10.47812,-1.71995 -7.54637,-0.94199 -12.13807,-1.79471 -19.7704,-1.65843 -6.70325,0.11962 -12.70072,1.07261 -19.15947,2.57383 -3.25752,0.75717 -6.43034,1.7627 -9.64253,2.65206 -3.37741,0.9351 -6.75079,1.88092 -10.12618,2.82137 -7.15622,1.66739 -12.21327,3.19929 -19.60822,3.60794 -2.69732,0.14905 -5.4463,0.1617 -8.1026,-0.26856 -4.15539,-0.67308 -7.90657,-2.26125 -9.67859,-5.79214 -0.79757,-1.5892 -0.58766,-3.42547 -0.88149,-5.1382 -0.12011,-2.50169 -0.22547,-8.3775 -1.03553,-10.86335 -0.47469,-1.45663 -0.96275,-3.10179 -2.29854,-4.08429 -3.44207,-2.53169 -9.27834,-0.29649 -12.33906,0.65276 -3.35879,1.04166 -6.57541,2.39626 -9.86313,3.5944 -3.89146,1.28568 -7.74067,2.67061 -11.67441,3.85704 -8.14353,2.4561 -16.4954,4.67026 -25.022207,5.92825 -6.189866,0.9132 -12.101542,1.43321 -18.273835,0.33623 -1.32995,-0.23636 -2.489513,-0.9351 -3.734284,-1.40264 -1.479607,0.13984 -4.959354,1.62085 -4.438829,0.41975 0.681837,-1.57346 3.393492,-1.69469 5.232895,-2.25212 2.44635,-0.74138 4.998013,-1.21875 7.548895,-1.62147 9.363194,-1.47819 18.853318,-1.50202 28.210295,0.0387 2.53267,0.82132 11.13025,2.5184 12.04447,6.31496 0.44336,1.8412 -0.89887,3.76153 -2.05635,5.35588 -1.54434,2.12722 -3.7843,3.82492 -5.87626,5.57071 -5.98325,4.99317 -9.33674,5.88599 -17.410231,9.88571 -4.703605,1.84447 -9.316187,3.87189 -14.110828,5.5334 -10.093723,3.49787 -21.572341,6.68749 -32.299528,8.36018 -8.883167,1.38514 -18.317762,2.52127 -27.113311,-0.22942 -2.772885,-0.86719 -4.88613,-2.84835 -7.329174,-4.27253 -1.017769,-1.97038 -2.887735,-3.75929 -3.053298,-5.91115 -0.473727,-6.1571 5.098077,-11.17373 9.560943,-15.03159 3.660348,-3.16416 7.687374,-6.00926 11.774711,-8.75842 12.878312,-8.66201 20.432111,-12.27824 34.561275,-19.9233 7.33407,-3.5168 14.585389,-7.1648 22.002201,-10.55041 24.77019,-11.307059 50.51125,-21.809568 77.98025,-27.215724 3.70609,-0.729393 7.49213,-1.115422 11.2382,-1.673131 1.86307,-0.04966 3.92435,-0.8709 5.58921,-0.148949 0.80415,0.348715 -0.28097,1.596713 -0.82348,2.215571 -0.81814,0.933287 -1.95605,1.648411 -3.10728,2.268406 -3.53257,1.902454 -7.23887,3.555286 -10.89659,5.273342 -13.37159,6.280704 -15.49071,7.05115 -29.67192,13.165375 -5.69961,2.24545 -11.34973,4.5865 -17.09881,6.73635 -10.73791,4.01539 -22.00763,7.75514 -33.017612,11.19349 -8.291077,2.58924 -15.357801,4.63518 -23.659093,6.81917 -1.766883,0.46484 -3.55488,0.86783 -5.332314,1.30174 0,0 -5.036336,3.34899 -5.036336,3.34899 z" />
  </g>
</svg>
