<?xml version="1.0" encoding="UTF-8" standalone="no"?>
<!-- Created with Inkscape (http://www.inkscape.org/) -->

<svg
   width="210mm"
   height="297mm"
   viewBox="0 0 210 297"
   version="1.1"
   id="svg5"
   sodipodi:docname="signature-new.svg"
   inkscape:version="1.2.2 (b0a8486541, 2022-12-01)"
   xmlns:inkscape="http://www.inkscape.org/namespaces/inkscape"
   xmlns:sodipodi="http://sodipodi.sourceforge.net/DTD/sodipodi-0.dtd"
   xmlns="http://www.w3.org/2000/svg"
   xmlns:svg="http://www.w3.org/2000/svg">
  <sodipodi:namedview
     id="namedview7"
     pagecolor="#ffffff"
     bordercolor="#999999"
     borderopacity="1"
     inkscape:showpageshadow="0"
     inkscape:pageopacity="0"
     inkscape:pagecheckerboard="0"
     inkscape:deskcolor="#d1d1d1"
     inkscape:document-units="mm"
     showgrid="false"
     inkscape:zoom="0.49798681"
     inkscape:cx="675.72071"
     inkscape:cy="561.25985"
     inkscape:window-width="1366"
     inkscape:window-height="748"
     inkscape:window-x="0"
     inkscape:window-y="20"
     inkscape:window-maximized="1"
     inkscape:current-layer="layer1" />
  <defs
     id="defs2" />
  <g
     inkscape:label="Layer 1"
     inkscape:groupmode="layer"
     id="layer1">
    <path
       style="fill:#f4f9e9;stroke:#f4f9e9;stroke-width:4.265;stroke-dasharray:none;stroke-opacity:1;fill-opacity:1"
       id="path3595"
       d="m 47.23304,179.74003 c 2.90563,-1.42759 5.82848,-2.8206 8.71685,-4.28277 12.32279,-6.23809 27.17499,-14.0258 39.10071,-20.37554 16.19128,-8.62089 36.52423,-19.53644 52.32263,-28.72358 8.78082,-5.10624 17.39244,-10.49805 26.08866,-15.74708 12.46054,-8.21919 30.55038,-19.42699 42.04945,-29.583148 4.59574,-4.059023 9.3098,-8.243101 12.54999,-13.448633 4.278,-6.872815 6.13014,-17.817865 -3.06598,-22.819905 -5.15734,-2.805226 -11.6147,-1.722949 -17.42204,-2.584423 -7.97574,1.926122 -16.21917,2.966173 -23.9272,5.778367 -18.6299,6.796916 -43.91355,21.283229 -60.51501,31.489049 -19.82513,12.187595 -38.30741,25.000933 -56.3112,39.760483 -8.16046,6.68998 -15.76718,14.0283 -23.65076,21.04245 -6.37452,7.1571 -13.14214,13.98259 -19.1236,21.47131 -9.96569,12.47695 -18.0621302,25.51555 -25.01607016,39.83868 -5.00999004,10.31919 -9.04765984,21.07833 -11.26531984,32.35881 -0.84169,4.28139 -0.94911,8.67492 -1.42364,13.01238 1.18398,6.86952 1.02158,15.61865 8.2478798,19.97766 9.71904,5.86267 22.2887402,3.25102 32.1344102,0.4421 17.39977,-4.96408 28.24874,-11.81974 44.35949,-20.27484 20.82884,-12.67535 22.60896,-13.31442 42.06184,-26.80545 5.51297,-3.82337 11.01082,-7.67806 16.31747,-11.78299 3.96804,-3.06945 16.67272,-12.45752 18.49594,-19.19683 0.77971,-2.88208 -0.98312,-5.8899 -1.47468,-8.83485 -4.46553,-1.08129 -8.80205,-3.22727 -13.3966,-3.24388 -7.31453,-0.0265 -26.05649,6.23784 -32.33672,8.56256 -7.79537,2.88558 -22.85214,9.47821 -30.39676,13.63971 -3.67234,2.0256 -7.06578,4.52007 -10.59865,6.78011 -1.25939,2.25345 -5.34043,4.70523 -3.7782,6.76036 8.29053,10.90632 24.23938,4.67625 33.53964,2.47133 13.44218,-3.1869 31.05743,-8.86488 44.12004,-13.37539 6.42743,-2.21938 12.77505,-4.66352 19.16258,-6.99527 9.33263,-2.90164 18.00454,-7.73506 27.34101,-10.64857 2.23152,-0.69636 4.55008,-1.2921 6.88757,-1.32027 0.74036,-0.009 1.61644,0.5155 1.85956,1.21486 0.19211,0.5526 -0.90978,0.91154 -0.91696,1.49654 -0.0196,1.59788 0.56042,3.14647 0.84064,4.7197 1.14099,2.40706 1.78267,5.12232 3.42298,7.22117 5.69889,7.29195 11.68783,9.65456 20.65899,12.09378 9.99728,2.71822 21.42028,3.36445 31.68753,3.39443 5.4294,0.0159 10.85053,-0.42503 16.27579,-0.63754 14.44828,-0.88307 28.793,-2.87581 43.21701,-4.0285 9.61948,-0.76874 13.75828,-0.84283 23.31032,-1.22656 5.67508,-0.22857 5.35183,-8.25435 -0.32325,-8.02578 v 0 c -9.79744,0.39562 -13.86526,0.46582 -23.73954,1.25538 -14.2804,1.14189 -28.48273,3.10793 -42.7857,3.9996 -5.20383,0.21282 -10.40331,0.63655 -15.61148,0.63845 -10.1378,0.004 -19.39593,-0.54028 -29.26566,-2.91085 -6.25636,-1.50268 -11.90369,-3.18521 -16.22972,-8.1245 -1.28466,-1.46676 -1.82057,-3.44856 -2.73085,-5.17284 -0.90818,-4.4348 -1.10249,-9.15737 -5.20577,-12.29084 -3.80737,-2.90749 -10.64246,-0.91061 -14.22476,0.20298 -2.30068,0.7152 -27.18152,10.58807 -27.22292,10.6044 -6.30381,2.30275 -12.5684,4.71582 -18.91143,6.90825 -13.58816,4.69665 -29.19054,9.69474 -43.16271,13.12542 -5.90658,1.45027 -12.1467,1.60632 -17.88019,3.63566 -2.67124,0.94547 -4.08364,4.29679 -6.80101,5.10012 -1.09522,0.32378 0.54012,-2.21937 0.81018,-3.32905 3.25559,-2.10422 6.37447,-4.43674 9.76675,-6.31266 4.45801,-2.4653 9.09677,-4.59612 13.74187,-6.68767 10.70864,-4.82176 20.16239,-8.58079 31.48177,-11.73913 4.43291,-1.23687 9.0147,-1.8712 13.48042,-2.9838 2.16178,-0.5386 4.25854,-1.31083 6.38782,-1.96625 0.79137,0.49687 2.62501,0.5905 2.37411,1.4906 -1.81066,6.49553 -12.85766,14.34903 -16.5721,17.22424 -5.23088,4.04904 -10.65114,7.85035 -16.08565,11.62168 -19.11406,13.26435 -20.89796,13.91846 -41.33046,26.36966 -16.35419,8.62655 -24.77,14.14817 -42.08362,19.48559 -3.59164,1.10723 -18.6861202,4.90574 -24.34235016,2.5085 -5.67884004,-2.40682 -5.62923004,-9.55885 -6.58800004,-14.18723 0.39762,-3.92369 0.45069,-7.89774 1.19282,-11.77107 2.05214,-10.71065 5.8265,-20.79069 10.55982,-30.59719 C 12.73653,191.61257 20.48692,179.07147 30.04875,167.0532 c 5.77318,-7.25632 12.30788,-13.87268 18.46183,-20.80901 7.72263,-6.8817 15.17237,-14.08245 23.16792,-20.64511 17.78455,-14.5974 35.87602,-27.136791 55.46178,-39.196538 16.31488,-10.045724 40.20461,-23.727601 58.4573,-30.657604 6.87578,-2.610531 14.23431,-3.707999 21.35148,-5.561998 0.96482,-0.02456 15.19419,-2.733822 16.81371,3.159604 2.3469,8.540328 -9.01417,17.665219 -13.10451,21.284965 -11.29581,9.996226 -29.1202,21.037648 -41.34762,29.107161 -8.62053,5.20501 -17.15674,10.5523 -25.86159,15.61502 -15.74733,9.15862 -36.00407,20.03268 -52.14029,28.62455 -11.82487,6.29626 -26.66802,14.08002 -38.90111,20.274 -2.85662,1.4464 -5.74741,2.82434 -8.62113,4.2365 -5.13024,2.43706 -1.68373,9.69234 3.44652,7.25529 z" />
  </g>
</svg>
