<?xml version="1.0" encoding="UTF-8" standalone="no"?>
<svg
   role="img"
   viewBox="0 0 24 24"
   version="1.1"
   id="svg5836"
   sodipodi:docname="tmux.svg"
   inkscape:version="1.2.2 (b0a8486541, 2022-12-01)"
   xmlns:inkscape="http://www.inkscape.org/namespaces/inkscape"
   xmlns:sodipodi="http://sodipodi.sourceforge.net/DTD/sodipodi-0.dtd"
   xmlns="http://www.w3.org/2000/svg"
   xmlns:svg="http://www.w3.org/2000/svg">
  <defs
     id="defs5840" />
  <sodipodi:namedview
     id="namedview5838"
     pagecolor="#ffffff"
     bordercolor="#999999"
     borderopacity="1"
     inkscape:showpageshadow="0"
     inkscape:pageopacity="0"
     inkscape:pagecheckerboard="0"
     inkscape:deskcolor="#d1d1d1"
     showgrid="false"
     inkscape:zoom="23.291667"
     inkscape:cx="12"
     inkscape:cy="12.042934"
     inkscape:window-width="1366"
     inkscape:window-height="748"
     inkscape:window-x="0"
     inkscape:window-y="20"
     inkscape:window-maximized="1"
     inkscape:current-layer="svg5836" />
  <title
     id="title5832">tmux</title>
  <path
     d="M24 2.251V10.5H12.45V0h9.3A2.251 2.251 0 0 1 24 2.251zM12.45 11.4H24v10.5h-.008A2.25 2.25 0 0 1 21.75 24H2.25a2.247 2.247 0 0 1-2.242-2.1H0V2.251A2.251 2.251 0 0 1 2.25 0h9.3v21.6h.9V11.4zm11.242 10.5H.308a1.948 1.948 0 0 0 1.942 1.8h19.5a1.95 1.95 0 0 0 1.942-1.8z"
     id="path5834" />
  <path
     style="fill:#5b8fb9;stroke:#5b8fb9;stroke-width:0.00450805"
     d="M 2.0178891,23.958845 C 1.0711601,23.847514 0.30218235,23.157685 0.08608035,22.225872 0.02795308,21.975232 0.02169998,20.784198 0.03166963,11.86222 L 0.04293381,1.7817531 0.1592451,1.4915053 C 0.42462225,0.82927264 0.93489639,0.34582448 1.6100179,0.11700212 L 1.8890877,0.02241558 6.7084079,0.00947217 11.527728,-0.00347123 V 10.817584 21.63864 H 12 12.472272 v -5.109123 -5.109123 h 5.753131 5.75313 l -6.35e-4,5.270125 c -6.96e-4,5.783414 0.0099,5.535717 -0.259933,6.070273 -0.252427,0.500056 -0.759676,0.92954 -1.324887,1.121774 l -0.282166,0.09597 -9.91771,0.0053 c -5.4547405,0.0029 -10.0336313,-0.0083 -10.1753129,-0.02499 z M 22.569429,23.542132 c 0.602773,-0.28557 0.989312,-0.800654 1.130422,-1.506354 l 0.0279,-0.139535 H 12.001466 0.27517884 l 0.0289341,0.161002 c 0.13601857,0.756866 0.65324039,1.354067 1.37030566,1.582201 0.137319,0.04369 2.2194989,0.05303 10.3899824,0.04659 l 10.218247,-0.008 z"
     id="path6322" />
  <path
     style="fill:#5b8fb9;stroke:#5b8fb9;stroke-width:0.105;stroke-dasharray:none"
     d="m 12.472272,5.2361891 v -5.23966033 l 4.81932,0.0129434 4.81932,0.01294341 0.282167,0.09549311 c 0.675402,0.22857496 1.185199,0.71937497 1.460673,1.40624161 l 0.103314,0.2576028 0.01191,4.3470483 0.01191,4.3470486 H 18.22658 12.472272 Z"
     id="path6324" />
  <path
     style="fill:#5b8fb9;stroke:#5b8fb9;stroke-width:0.105;stroke-dasharray:none"
     d="M 1.7723783,23.890529 C 0.96862656,23.695227 0.2751372,22.991526 0.11170131,22.2054 0.07803393,22.04346 0.06440072,19.062084 0.06440072,11.861487 V 1.7450904 L 0.23518423,1.3922522 C 0.51916469,0.80554944 0.95995561,0.39805026 1.5670841,0.16094719 L 1.8461538,0.05196151 6.686941,0.03334462 11.527728,0.01472774 V 10.826684 21.63864 H 12 12.472272 v -5.109123 -5.109123 h 5.758604 5.758604 l -0.03039,5.205724 c -0.01671,2.863149 -0.0483,5.340966 -0.07019,5.506261 -0.08724,0.658749 -0.564456,1.268922 -1.263215,1.615175 l -0.379488,0.188045 -10.114152,0.0073 c -8.5047115,0.0061 -10.1532215,-0.0022 -10.3596647,-0.05236 z M 22.530944,23.586838 c 0.650284,-0.326991 1.025614,-0.808565 1.185787,-1.521444 l 0.03801,-0.169151 H 11.999244 0.24375135 l 0.0601975,0.258044 c 0.17924584,0.768359 0.79689505,1.405914 1.45590735,1.502831 0.1183045,0.0174 4.7898022,0.03404 10.3811058,0.03699 l 10.166007,0.0054 z"
     id="path6326" />
</svg>
