<?xml version="1.0" encoding="UTF-8" standalone="no"?>
<svg
   role="img"
   viewBox="0 0 24 24"
   version="1.1"
   id="svg7106"
   sodipodi:docname="vim.svg"
   inkscape:version="1.2.2 (b0a8486541, 2022-12-01)"
   xmlns:inkscape="http://www.inkscape.org/namespaces/inkscape"
   xmlns:sodipodi="http://sodipodi.sourceforge.net/DTD/sodipodi-0.dtd"
   xmlns="http://www.w3.org/2000/svg"
   xmlns:svg="http://www.w3.org/2000/svg">
  <defs
     id="defs7110" />
  <sodipodi:namedview
     id="namedview7108"
     pagecolor="#ffffff"
     bordercolor="#999999"
     borderopacity="1"
     inkscape:showpageshadow="0"
     inkscape:pageopacity="0"
     inkscape:pagecheckerboard="0"
     inkscape:deskcolor="#d1d1d1"
     showgrid="false"
     inkscape:zoom="23.291667"
     inkscape:cx="12"
     inkscape:cy="12.042934"
     inkscape:window-width="1366"
     inkscape:window-height="748"
     inkscape:window-x="0"
     inkscape:window-y="20"
     inkscape:window-maximized="1"
     inkscape:current-layer="svg7106" />
  <title
     id="title7102">Vim</title>
  <path
     d="M24 11.986h-.027l-4.318-4.318 4.303-4.414V1.461l-.649-.648h-8.198l-.66.605v1.045L12.015.027V0L12 .014 11.986 0v.027l-1.29 1.291-.538-.539H2.035l-.638.692v1.885l.616.616h.72v5.31L.027 11.987H0L.014 12 0 12.014h.027l2.706 2.706v6.467l.907.523h2.322l1.857-1.904 4.166 4.166V24l.015-.014.014.014v-.028l2.51-2.509h.485c.111 0 .211-.07.25-.179l.146-.426c.028-.084.012-.172-.037-.239l1.462-1.462-.612 1.962c-.043.141.036.289.177.332.025.008.052.012.078.012h1.824c.106-.001.201-.064.243-.163l.165-.394c.025-.065.024-.138-.004-.203-.027-.065-.08-.116-.146-.142-.029-.012-.062-.019-.097-.02h-.075l.84-2.644h1.232l-1.016 3.221c-.043.141.036.289.176.332.025.008.052.012.079.012h2.002c.11 0 .207-.066.248-.17l.164-.428c.051-.138-.021-.29-.158-.341-.029-.011-.06-.017-.091-.017h-.145l1.131-3.673c.027-.082.012-.173-.039-.24l-.375-.504-.003-.005c-.051-.064-.127-.102-.209-.102h-1.436c-.071 0-.141.03-.19.081l-.4.439h-.624l-.042-.046 4.445-4.445H24L23.986 12l.014-.014zM9.838 21.139l1.579-4.509h-.501l.297-.304h1.659l-1.563 4.555h.623l-.079.258H9.838zm3.695-7.516l.15.151-.269.922-.225.226h-.969l-.181-.181.311-.871.288-.247h.895zM5.59 20.829H3.877l-.262-.15V3.091H2.379l-.1-.1V1.815l.143-.154h7.371l.213.214v1.108l-.142.173H8.785v8.688l8.807-8.688h-2.086l-.175-.188V1.805l.121-.111h7.49l.132.133v1.07L12.979 13.25h-.373c-.015-.001-.028 0-.042.001l-.02.003c-.045.01-.086.03-.119.06l-.343.295-.004.003c-.033.031-.059.069-.073.111l-.296.83-6.119 6.276zm14.768-3.952l.474-.519h1.334l.309.415-1.265 4.107h.493l-.08.209H19.84l1.124-3.564h-2.015l-1.077 3.391h.424l-.073.174h-1.605l1.107-3.548h-2.096l-1.062 3.339h.436l-.072.209H13.27l1.514-4.46H14.198l.091-.271h1.65l.519.537h.906l.491-.554h1.061l.489.535h.953z"
     id="path7104" />
  <path
     style="fill:#5b8fb9;stroke:#5b8fb9;stroke-width:0.105;stroke-dasharray:none"
     d="M 9.9049872,21.842576 7.8315525,19.77102 6.8870288,20.726297 5.9425052,21.681574 H 4.800088 3.6576714 L 3.2141714,21.434705 2.7706715,21.187835 2.7699511,17.94658 2.7692308,14.705326 1.4168118,13.352411 0.06439288,11.999497 1.4168118,10.647589 2.7692308,9.2956813 V 6.6227957 3.9499106 H 2.3924084 2.0155862 L 1.7269344,3.6590299 1.4382826,3.3681492 V 2.4140788 1.4600084 l 0.3059949,-0.322133 0.3059948,-0.322133 h 4.0613651 4.0613656 l 0.269845,0.2674465 0.269845,0.2674465 0.643781,-0.64270761 0.643781,-0.64270762 1.21303,1.21247043 c 0.667167,0.6668587 1.227396,1.2124704 1.244953,1.2124704 0.01756,0 0.03192,-0.2398897 0.03192,-0.5330881 V 1.4239847 l 0.330051,-0.3041211 0.33005,-0.3041212 h 4.060939 4.060939 l 0.331729,0.3336869 0.33173,0.3336869 -3e-4,0.8791932 -3.01e-4,0.8791933 -2.146386,2.1991638 c -1.18052,1.2095399 -2.146394,2.2142636 -2.146394,2.2327191 0,0.018456 0.966013,0.9994231 2.146695,2.1799277 l 2.146694,2.1463727 -2.216702,2.217009 c -1.311754,1.311936 -2.204615,2.236567 -2.187094,2.264916 0.01745,0.02824 0.1595,0.04791 0.346037,0.04791 h 0.316429 l 0.245712,-0.257603 0.245711,-0.257603 h 0.825473 0.825472 l 0.241337,0.320647 c 0.132736,0.176355 0.241338,0.36053 0.241338,0.409277 0,0.04875 -0.242293,0.875085 -0.53843,1.836307 -0.663388,2.153272 -0.610605,1.941819 -0.484722,1.941819 0.143778,0 0.293281,0.116153 0.293256,0.227837 -2.5e-5,0.106152 -0.155833,0.538046 -0.223706,0.620106 -0.06239,0.07543 -2.268413,0.07745 -2.343714,0.0021 -0.02834,-0.02834 -0.05151,-0.100787 -0.0515,-0.161002 10e-6,-0.06022 0.222058,-0.814669 0.49344,-1.676565 0.271382,-0.861897 0.493555,-1.591751 0.49372,-1.621899 2.14e-4,-0.04252 -0.140674,-0.05215 -0.628163,-0.04293 l -0.628462,0.01188 -0.422592,1.330948 c -0.232425,0.732022 -0.422963,1.335778 -0.423416,1.341682 -4.55e-4,0.0059 0.04448,0.01073 0.09986,0.01073 0.113494,0 0.24279,0.121186 0.24279,0.227559 0,0.09888 -0.207261,0.556881 -0.270075,0.5968 -0.02856,0.01815 -0.508418,0.0333 -1.066349,0.03366 -1.09152,7.08e-4 -1.124551,-0.0059 -1.119162,-0.224877 0.0013,-0.05306 0.138713,-0.529814 0.305348,-1.059458 0.166635,-0.529644 0.292864,-0.973098 0.280509,-0.985453 -0.01236,-0.01235 -0.350594,0.305069 -0.751641,0.705386 -0.6364,0.635243 -0.726186,0.74158 -0.705674,0.835764 0.02395,0.109975 -0.110751,0.565154 -0.198558,0.670955 -0.03252,0.03919 -0.148968,0.05834 -0.354709,0.05834 h -0.30629 l -1.244526,1.245081 c -0.684489,0.684794 -1.254335,1.24508 -1.266325,1.24508 -0.01199,0 -0.954846,-0.9322 -2.0952348,-2.071556 z m 2.0049448,-0.811415 c 0.02592,-0.07437 0.04713,-0.141986 0.04713,-0.150269 0,-0.0083 -0.135241,-0.01506 -0.300536,-0.01506 -0.165296,0 -0.299685,-0.01449 -0.298644,-0.0322 10e-4,-0.01771 0.346831,-1.036851 0.768421,-2.264758 l 0.766527,-2.232558 -0.841985,-0.01167 -0.841985,-0.01167 -0.172674,0.172673 -0.172673,0.172673 h 0.246238 c 0.135431,0 0.246238,0.01722 0.246238,0.03826 0,0.02105 -0.347764,1.028868 -0.772809,2.239605 -0.425044,1.210737 -0.7728083,2.207829 -0.7728083,2.21576 0,0.0079 0.4617953,0.01442 1.0262113,0.01442 h 1.026212 z m 3.068374,-0.0043 c 0.04172,-0.155668 0.03621,-0.161002 -0.166141,-0.161002 -0.106262,0 -0.193203,-0.01565 -0.193203,-0.03478 0,-0.03429 0.147385,-0.503006 0.734961,-2.337316 l 0.299123,-0.933811 h 1.007108 c 0.656274,0 1.007109,0.01526 1.007109,0.04382 0,0.0241 -0.241503,0.816596 -0.536673,1.761107 -0.29517,0.944511 -0.536672,1.726583 -0.536672,1.737939 0,0.01135 0.366404,0.02065 0.814232,0.02065 0.761066,0 0.817134,-0.0054 0.858676,-0.08305 0.06701,-0.12521 0.05976,-0.131624 -0.148758,-0.131624 -0.106261,0 -0.193202,-0.01768 -0.193202,-0.03929 0,-0.04818 1.022328,-3.272839 1.044693,-3.295204 0.0088,-0.0088 0.451718,-0.01079 0.984279,-0.0044 l 0.968294,0.01156 -0.530297,1.674419 c -0.291662,0.92093 -0.541371,1.717889 -0.554907,1.77102 l -0.02461,0.0966 h 0.918887 c 0.916627,0 0.918951,-2.58e-4 0.944775,-0.0966 0.04122,-0.153796 0.03852,-0.156069 -0.200875,-0.169593 l -0.227936,-0.01288 0.614285,-1.996422 c 0.337857,-1.098032 0.61431,-2.022245 0.614341,-2.053804 3e-5,-0.03156 -0.06118,-0.142652 -0.136025,-0.24687 l -0.136079,-0.189487 h -0.69809 -0.69809 l -0.245711,0.257603 -0.245712,0.257602 h -0.4416 -0.4416 l -0.249539,-0.279045 -0.249539,-0.279046 -0.544633,-2.4e-5 -0.544634,-2.4e-5 -0.246532,0.27907 -0.246533,0.279069 H 16.917687 16.483895 L 16.22898,16.615385 15.974066,16.357782 h -0.85035 -0.850349 l -0.04187,0.110129 c -0.06828,0.179594 -0.05455,0.190407 0.241792,0.190407 0.252969,0 0.280414,0.0081 0.253641,0.07513 -0.04263,0.106695 -1.481848,4.355011 -1.481848,4.374159 0,0.0087 0.384151,0.01582 0.853668,0.01582 0.848993,0 0.853811,-5.28e-4 0.879557,-0.0966 z M 8.6562685,17.724935 11.72093,14.58401 11.892665,14.1205 c 0.152735,-0.412228 0.195172,-0.48392 0.383562,-0.647985 0.189631,-0.165145 0.239828,-0.186723 0.479074,-0.205941 l 0.267248,-0.02147 3.59949,-3.6923082 c 1.97972,-2.0307692 4.241472,-4.349195 5.026116,-5.1520572 L 23.07478,2.940989 23.07588,2.3592359 c 7.3e-4,-0.3965235 -0.01533,-0.5981573 -0.05045,-0.6332737 -0.07467,-0.074671 -7.593308,-0.074671 -7.667978,0 -0.03516,0.03516 -0.05152,0.2421996 -0.05152,0.6519735 0,0.8565255 -0.08646,0.7987862 1.198897,0.8006829 l 1.012193,0.00149 -1.590899,1.5763239 c -0.875021,0.866959 -2.831192,2.8006802 -4.347075,4.2971394 L 8.822898,11.774407 V 7.4757544 3.177102 h 0.5225586 c 0.7046064,0 0.6795884,0.026819 0.6795884,-0.7284965 V 1.8622189 L 9.9046274,1.7468518 9.7842101,1.6314848 H 6.0976323 c -3.3701493,0 -3.6933168,0.0061 -3.7650924,0.071055 -0.069015,0.062457 -0.078515,0.1445381 -0.078515,0.6783542 0,0.4150988 0.016306,0.6236047 0.051521,0.6588199 0.035268,0.035268 0.2451998,0.051521 0.6654741,0.051521 h 0.6139535 v 8.7972151 8.797215 l 0.1395349,0.08936 c 0.1293979,0.08287 0.2022868,0.08941 1.0033167,0.09008 l 0.8637824,7.24e-4 z M 13.328619,14.83611 c 0.05943,-0.06326 0.155515,-0.296697 0.242227,-0.588498 0.189536,-0.637822 0.189706,-0.637594 -0.475535,-0.637594 H 12.61538 l -0.152686,0.139535 c -0.118512,0.108304 -0.186624,0.236651 -0.304318,0.573437 l -0.151633,0.433902 0.09204,0.09204 c 0.08395,0.08395 0.137672,0.09204 0.611685,0.09204 0.495503,0 0.524225,-0.0049 0.618154,-0.104856 z"
     id="path7592" />
</svg>
