<?xml version="1.0" encoding="UTF-8" standalone="no"?>
<svg
   role="img"
   viewBox="0 0 24 24"
   version="1.1"
   id="svg8370"
   sodipodi:docname="visualstudiocode.svg"
   inkscape:version="1.2.2 (b0a8486541, 2022-12-01)"
   xmlns:inkscape="http://www.inkscape.org/namespaces/inkscape"
   xmlns:sodipodi="http://sodipodi.sourceforge.net/DTD/sodipodi-0.dtd"
   xmlns="http://www.w3.org/2000/svg"
   xmlns:svg="http://www.w3.org/2000/svg">
  <defs
     id="defs8374" />
  <sodipodi:namedview
     id="namedview8372"
     pagecolor="#ffffff"
     bordercolor="#999999"
     borderopacity="1"
     inkscape:showpageshadow="0"
     inkscape:pageopacity="0"
     inkscape:pagecheckerboard="0"
     inkscape:deskcolor="#d1d1d1"
     showgrid="false"
     inkscape:zoom="23.291667"
     inkscape:cx="12"
     inkscape:cy="12.042934"
     inkscape:window-width="1366"
     inkscape:window-height="748"
     inkscape:window-x="0"
     inkscape:window-y="20"
     inkscape:window-maximized="1"
     inkscape:current-layer="svg8370" />
  <title
     id="title8366">Visual Studio Code</title>
  <path
     d="M23.15 2.587L18.21.21a1.494 1.494 0 0 0-1.705.29l-9.46 8.63-4.12-3.128a.999.999 0 0 0-1.276.057L.327 7.261A1 1 0 0 0 .326 8.74L3.899 12 .326 15.26a1 1 0 0 0 .001 1.479L1.65 17.94a.999.999 0 0 0 1.276.057l4.12-3.128 9.46 8.63a1.492 1.492 0 0 0 1.704.29l4.942-2.377A1.5 1.5 0 0 0 24 20.06V3.939a1.5 1.5 0 0 0-.85-1.352zm-5.146 14.861L10.826 12l7.178-5.448v10.896z"
     id="path8368" />
  <path
     style="fill:#5b8fb9;stroke:#5b8fb9;stroke-width:0.105;stroke-dasharray:none"
     d="m 17.12794,23.836197 c -0.119526,-0.04132 -0.276662,-0.113143 -0.349192,-0.1596 -0.07253,-0.04646 -2.280643,-2.04547 -4.906917,-4.44225 C 9.2455552,16.837567 7.0809205,14.87062 7.0615307,14.863354 7.0421414,14.856088 6.0973391,15.556095 4.9619708,16.418926 3.8266026,17.281756 2.8212364,18.0267 2.7278237,18.074355 2.4844866,18.198497 2.1556815,18.189912 1.886784,18.052398 1.601115,17.906306 0.24011298,16.643325 0.13253605,16.424492 0.00356248,16.162135 -0.00422137,15.896741 0.10931655,15.632815 0.1966601,15.42978 0.39550978,15.234425 2.0674879,13.709059 3.0910136,12.775285 3.9284436,12.006208 3.9284436,12 c 0,-0.0062 -0.83743,-0.775285 -1.8609557,-1.709059 C 0.39550978,8.765575 0.1966601,8.5702201 0.10931655,8.3671848 -0.00421753,8.1032677 0.0035604,7.8379999 0.13253605,7.5752797 0.2316919,7.3733019 1.5316288,6.1532338 1.8461538,5.9669478 2.1154111,5.8074728 2.4643234,5.7912167 2.7282301,5.925852 c 0.093636,0.04777 1.0993272,0.792605 2.234869,1.6551894 1.1355413,0.8625841 2.0797138,1.5624983 2.0981603,1.555364 0.018447,-0.00713 2.1807778,-1.9739725 4.8051806,-4.3707524 3.710603,-3.3887706 4.831174,-4.38925411 5.039363,-4.49931727 0.313906,-0.16595205 0.657346,-0.21630224 0.962833,-0.14115665 0.113574,0.0279376 1.383027,0.61495804 2.821007,1.30448982 2.888357,1.3850083 2.91363,1.4003063 3.151339,1.9075796 l 0.116084,0.2477247 0.01116,8.3274258 c 0.01233,9.200767 0.03117,8.555067 -0.261935,8.980535 -0.0792,0.114968 -0.22906,0.26965 -0.33302,0.343736 -0.226227,0.16122 -5.223612,2.564887 -5.469876,2.630929 -0.246931,0.06622 -0.525745,0.05493 -0.775459,-0.0314 z M 18.000316,9.2795845 17.989267,6.5310316 14.409874,9.2479943 C 12.441208,10.742324 10.830482,11.980726 10.830482,12 c 0,0.01927 1.610726,1.257676 3.579392,2.752006 l 3.579393,2.716962 0.01105,-2.720415 c 0.0061,-1.496228 0.0061,-3.957264 0,-5.4689685 z"
     id="path8856" />
</svg>
